<?xml version="1.0" encoding="UTF-8" standalone="no"?>
<!-- Generator: Adobe Illustrator 19.0.0, SVG Export Plug-In . SVG Version: 6.00 Build 0)  -->

<svg
   xmlns:dc="http://purl.org/dc/elements/1.1/"
   xmlns:cc="http://creativecommons.org/ns#"
   xmlns:rdf="http://www.w3.org/1999/02/22-rdf-syntax-ns#"
   xmlns:svg="http://www.w3.org/2000/svg"
   xmlns="http://www.w3.org/2000/svg"
   xmlns:xlink="http://www.w3.org/1999/xlink"
   xmlns:sodipodi="http://sodipodi.sourceforge.net/DTD/sodipodi-0.dtd"
   xmlns:inkscape="http://www.inkscape.org/namespaces/inkscape"
   version="1.1"
   id="Layer_1"
   x="0px"
   y="0px"
   viewBox="0 0 1080 540"
   style="enable-background:new 0 0 1080 540;"
   xml:space="preserve"
   sodipodi:docname="bsidesns-logo.svg"
   inkscape:version="0.92.4 (5da689c313, 2019-01-14)"><metadata
   id="metadata1496"><rdf:RDF><cc:Work
       rdf:about=""><dc:format>image/svg+xml</dc:format><dc:type
         rdf:resource="http://purl.org/dc/dcmitype/StillImage" /><dc:title></dc:title></cc:Work></rdf:RDF></metadata><defs
   id="defs1494">
	
	
	
	
</defs><sodipodi:namedview
   pagecolor="#000000"
   bordercolor="#666666"
   borderopacity="1"
   objecttolerance="10"
   gridtolerance="10"
   guidetolerance="10"
   inkscape:pageopacity="0"
   inkscape:pageshadow="2"
   inkscape:window-width="1362"
   inkscape:window-height="729"
   id="namedview1492"
   showgrid="false"
   inkscape:zoom="0.79722222"
   inkscape:cx="540"
   inkscape:cy="270"
   inkscape:window-x="0"
   inkscape:window-y="18"
   inkscape:window-maximized="0"
   inkscape:current-layer="Layer_1" />
<style
   type="text/css"
   id="style1283">
	.st0{display:none;}
	.st1{display:inline;fill:#FFFFFF;}
	.st2{display:inline;}
	.st3{display:inline;clip-path:url(#SVGID_2_);}
	.st4{fill:#FFFFFF;}
	.st5{fill:#0A0A0A;}
	.st6{fill:#770606;}
	.st7{fill:#212121;}
	.st8{fill:none;}
	.st9{display:none;fill:none;stroke:#000000;stroke-miterlimit:10;}
</style>
<g
   class="st0"
   id="g1299">
	<path
   class="st1"
   d="M325.2,47.6c0,0,78.3,18.3,78.1,97.4c0,0-1.5,14.7,4.6,15.4c6.2,0.7,9.8,0.2,9.2-14.4c0.8-9.6-6.9-42-31-68.9   c-13.9-15.5-33.3-29.1-59.6-35.6L326,40c-0.4-1.1-1.3-2-2.4-2.3c-6.5-2.1-24.8-7.6-34.9,1.4c8.7,11.5,25.3,11.2,32.4,11.5   c1.3,0.1,2.6-0.2,3.2-1.3L325.2,47.6z"
   id="path1285" />
	<path
   class="st1"
   d="M386.9,80.7c0,0-0.9-33.6,16.3-44.6c3.3,3.9,6.3,29.9-9.2,51.8L386.9,80.7z"
   id="path1287" />
	<path
   class="st1"
   d="M386.8,88.5c0,0-29.8-2.6-45.9,21c0,0,26.6,10.7,49.1-17.1"
   id="path1289" />
	<path
   class="st1"
   d="M366.5,60.1c0,0-10.8-16.2,6.3-46.6c0,0,14.6,17.6-1.9,50.3L366.5,60.1z"
   id="path1291" />
	<path
   class="st1"
   d="M365.4,64.8c0,0-28.9,5.9-38.6,26.2c0,0,22.7,5.5,42.5-22L365.4,64.8z"
   id="path1293" />
	<path
   class="st1"
   d="M339.2,46.3c0,0-8.2-20.1,3.3-42c0,0,11.4,18.3,3.3,45.9L339.2,46.3z"
   id="path1295" />
	<path
   class="st1"
   d="M335.8,50.7c0,0-19.5,5.5-27.2,24.9c0,0,16.4,0.3,36.7-22.7L335.8,50.7z"
   id="path1297" />
</g>
<g
   class="st0"
   id="g1381">
	<defs
   id="defs1302">
		<path
   id="SVGID_1_"
   d="M421.1,287.6c-29.8-6.3-42.9-12.9-42.9-12.9s-2.2-1-7.1-3.1c-9.9-4.2-30.8-13.1-65.6-28.3    c-29.4-10-42.1-9.3-50.7-7.7c-10.6,2-20.7,6.2-29.7,12.1c-10.8,7-20.8,14.7-20.8,14.7s53.2,16.3,88.3,74.2    c7.8,10.3,13.6,20.9,22,30.2c31.4,34.7,79.6,73.9,132.4,82.7c71.2,12.9,174.8,1.5,229.5-16.1c50.1-13.2,61.9-17.5,61.9-17.5    s37.5-15.2,137.4,8.8c0,0-60.4-37.9-79-83.6c0,0-54.4,39.3-117.9,0c0,0,100.7-66.6,138.6-166.2c0,0-154.1-25.1-257.6,14.5    c0,0,46.6-42.7,24.8-104.5c0,0-176.6,69.5-208.5,173.6l-4.7,19.4" />
	</defs>
	<use
   xlink:href="#SVGID_1_"
   style="display:inline;overflow:visible;fill:#0C0C0C;"
   id="use1304" />
	<clipPath
   id="SVGID_2_"
   class="st2">
		<use
   xlink:href="#SVGID_1_"
   style="overflow:visible;"
   id="use1306" />
	</clipPath>
	<g
   class="st3"
   clip-path="url(#SVGID_2_)"
   id="g1379">
		<g
   id="g1317">
			<path
   class="st4"
   d="M297.1,293.4c-6.1,16.1-12.5,32.1-18.3,48.2c-2.2,6-5.3,8.6-19.9,10.1c-25.3,2.7-49.9,0.5-74.7,0.7     c-17.7,0.2-19.3-1.4-16-10.4c6.8-18.1,13.6-36.2,20.5-54.3c1.4-3.5,1.6-7.6,10.1-8.9l-0.2,0c2.7,0.6,5.4,1.2,8.1,1.8     c7.9,3.5,16.5,4.4,27,4.7c15.2,0.4,30.3,3,45.4,4.7l-0.2,0C284.9,291.1,291,292.2,297.1,293.4z M242.5,310.4     c-7.5-2.7-15.7-3.5-24.3-3.6C225.5,309.6,233.9,310.3,242.5,310.4z"
   id="path1309" />
			<path
   class="st4"
   d="M274.7,167.5c15.1,4.6,31.6,6.5,47.9,8.9c16.8,2.4,17.6,3,14.5,11.6c-3.1,8.4-6.6,16.8-9.6,25.2     c-1.8,5.1-7.9,6.9-16.3,4.7c-23.6-6.4-49.8-7.1-74.6-10.7c-11.1-1.6-15.9-4.3-13.3-10.5c5.5-13.1,10.3-26.3,15-39.5     c1.8-5,7.1-7.4,16.6-6.8c27.1,1.9,54.3,0.8,81.4,1.3c9.7,0.2,14,2.1,12,7.4c-8.1,20.5-3.9,17.3-37.7,12.4     C298.7,169.8,287.5,166.5,274.7,167.5z"
   id="path1311" />
			<path
   class="st4"
   d="M198.8,278.8c-7.9-6-4.9-11.8,3-16.3c3.6-2,1.9-2.5,0.8-4.2c-2.8-4.7-0.8-9.4,4.6-13.1     c5.6-3.8,13.2-1,19.8-0.1c23.7,3.4,47.7,6,70.4,11.4c8.6,2.1,11.9,4.4,10,9.1c-3.5,8.6-6.7,17.2-10.1,25.8     c-6.2-0.5-12.4-1-18.6-1.5l0.2,0c-10.6-3.3-20.3-8.2-33.2-8.2c-13.4,0.1-26.2-1.6-39.2-2.7c-2.7-0.1-5.3-0.2-8-0.3L198.8,278.8z      M279.5,272.1c4.6,2,9.9,3.1,17.9,3C291,272.3,285.6,271.7,279.5,272.1z"
   id="path1313" />
			<path
   class="st4"
   d="M306.7,244.1c7,1.6,8.3,4.2,4.8,7.3c-3.7,3.2-10.5,3.2-15.4,1.6c-22.5-7.3-48.7-7.3-72.9-11.3     c-10.2-1.7-15.8-4-13.2-9.9c2.6-5.9,4.4-11.8,6.7-17.7c1.7-4.3,6.2-6.6,15.2-5.3c27.2,3.9,54.5,7.9,81.7,11.9     c6.7,1,10.2,3.6,7.9,6.9c-3.6,5.3,2.1,13.4-15,15c-21.6-1.7-40.3-9.9-63.1-8.9C263.5,239.2,285.2,241.5,306.7,244.1z"
   id="path1315" />
		</g>
		<g
   id="g1327">
			<path
   class="st4"
   d="M313.6,255.8c4.8-16.8,9.8-33.7,14.4-50.6c1.7-6.3,4.1-9,15.5-10.7c19.7-2.9,38.7-0.7,57.9-1.1     c13.7-0.3,15,1.3,12.3,10.8c-5.3,19-10.7,38-16.2,56.9c-1.1,3.7-1.3,7.9-7.9,9.4l0.1,0.1c-2.1-0.6-4.2-1.2-6.2-1.8     c-6.1-3.6-12.8-4.5-20.9-4.8c-11.8-0.4-23.5-3-35.2-4.7l0.2,0C323,258.1,318.3,256.9,313.6,255.8z M355.9,237.7     c5.8,2.8,12.2,3.6,18.9,3.7C369.1,238.4,362.6,237.7,355.9,237.7z"
   id="path1319" />
			<path
   class="st4"
   d="M330.4,387.4c-11.7-4.7-24.5-6.7-37.1-9.1c-13-2.4-13.7-3-11.2-12c2.4-8.8,5.2-17.6,7.6-26.4     c1.4-5.3,6.1-7.3,12.7-5c18.3,6.5,38.6,7.2,57.8,10.8c8.6,1.6,12.3,4.4,10.2,10.9c-4.3,13.7-8.1,27.5-11.8,41.4     c-1.4,5.2-5.5,7.8-12.9,7.2c-21-1.8-42.1-0.5-63.1-1c-7.5-0.2-10.9-2.2-9.2-7.7c6.4-21.5,3.1-18.1,29.3-13.2     C311.7,385,320.4,388.5,330.4,387.4z"
   id="path1321" />
			<path
   class="st4"
   d="M389.7,270.5c6.1,6.2,3.8,12.3-2.4,17.1c-2.8,2.1-1.5,2.6-0.7,4.4c2.1,4.9,0.5,9.8-3.7,13.7     c-4.3,4-10.2,1.1-15.3,0.2c-18.4-3.4-37-6.1-54.5-11.6c-6.7-2.1-9.2-4.6-7.7-9.5c2.7-9,5.3-18,7.9-27c4.8,0.5,9.6,1,14.4,1.5     l-0.2,0c8.2,3.4,15.7,8.5,25.7,8.4c10.4-0.1,20.3,1.5,30.4,2.7c2.1,0.1,4.1,0.2,6.2,0.3L389.7,270.5z M327.1,278     c-3.6-2.1-7.6-3.2-13.9-3.1C318.1,277.7,322.3,278.4,327.1,278z"
   id="path1323" />
			<path
   class="st4"
   d="M305.8,307.3c-5.4-1.6-6.4-4.4-3.7-7.7c2.9-3.4,8.2-3.4,11.9-1.8c17.4,7.6,37.8,7.4,56.5,11.5     c7.9,1.7,12.2,4.1,10.2,10.3c-2,6.1-3.5,12.4-5.3,18.5c-1.3,4.5-4.8,6.9-11.8,5.6c-21.1-4-42.2-8-63.3-12.1     c-5.2-1-7.9-3.7-6.1-7.2c2.8-5.6-1.6-14.1,11.7-15.8c16.7,1.7,31.2,10.2,48.9,9C339.3,312.2,322.5,310,305.8,307.3z"
   id="path1325" />
		</g>
		<g
   id="g1337">
			<path
   class="st4"
   d="M469.1,371.9c-7.3,27.5-14.7,54.9-21.8,82.4c-2.6,10.3-5.6,14.6-18.4,16.7c-22.1,3.6-42.9-1.2-64.2-1.7     c-15.2-0.4-16.4-3.1-12.4-18.6c8.1-31,16.2-61.9,24.4-92.8c1.6-6.1,2.3-13,9.8-14.9l-0.1-0.1c2.2,1.1,4.5,2.3,6.7,3.4     c6.3,6.3,13.6,8.2,22.6,9.1c13,1.3,25.6,6.4,38.4,9.9l-0.2-0.1C459,367.4,464.1,369.6,469.1,371.9z M420.2,399.1     c-6.1-5-13.1-6.7-20.4-7.2C405.7,397.1,412.8,398.6,420.2,399.1z"
   id="path1329" />
			<path
   class="st4"
   d="M465.5,153.9c12.4,8.5,26.3,12.5,40,17.2c14.1,4.8,14.8,5.8,11,20.5c-3.7,14.4-7.7,28.7-11.4,43     c-2.2,8.7-7.6,11.7-14.6,7.4c-19.5-11.9-41.8-14.3-62.7-21.4c-9.3-3.2-13.1-8-10.1-18.6c6.4-22.4,12.1-44.9,17.8-67.5     c2.2-8.6,7-12.5,15.1-11c23.1,4.3,46.5,3.5,69.7,5.5c8.3,0.7,11.8,4.2,9.3,13.3c-9.5,35.1-5.5,29.7-33.9,20     C485.9,158.9,476.7,152.7,465.5,153.9z"
   id="path1331" />
			<path
   class="st4"
   d="M386.6,342.9c-6.1-10.6-2.7-20.5,4.6-28c3.3-3.4,1.9-4.2,1.3-7.2c-1.8-8.2,0.5-16.2,5.6-22.4     c5.2-6.4,11.5-1.2,17,0.6c19.9,6.7,40.2,12.3,59,22.5c7.1,3.9,9.7,8.1,7.5,16c-4.1,14.7-7.9,29.4-11.8,44.1     c-5.3-1.1-10.5-2.2-15.8-3.4l0.2,0.1c-8.7-6.1-16.4-15-27.5-15.4c-11.5-0.4-22.3-3.7-33.3-6.3c-2.3-0.3-4.5-0.5-6.8-0.8     L386.6,342.9z M456.7,334.5c3.7,3.6,8.1,5.8,15,6C466.5,335.4,462,334,456.7,334.5z"
   id="path1333" />
			<path
   class="st4"
   d="M483.5,287.4c5.8,3,6.6,7.6,3.2,12.8c-3.6,5.5-9.4,5.1-13.4,2.2c-18.4-13.5-40.9-14.5-61.1-22.3     c-8.6-3.3-13.1-7.5-10.1-17.7c2.9-10,5.2-20.2,7.9-30.3c2-7.3,6.1-11.1,13.7-8.5c22.9,7.9,45.8,15.8,68.6,23.8     c5.6,2,8.3,6.6,5.9,12.3c-3.8,9.1,0.1,23.3-14.8,25.3c-18.3-3.9-33.4-18.7-53.1-17.9C447,277.2,465.4,281.9,483.5,287.4z"
   id="path1335" />
		</g>
		<g
   id="g1347">
			<path
   class="st4"
   d="M522.4,190.5c7.8-30,15.8-60,23.3-90.1c2.8-11.3,6-15.9,19.4-18.3c23.3-4,45.2,1.2,67.7,1.7     c16,0.4,17.3,3.4,13,20.3c-8.6,33.9-17.3,67.7-26.1,101.5c-1.7,6.6-2.5,14.2-10.4,16.3l0.2,0.1c-2.3-1.2-4.7-2.5-7-3.7     c-6.7-6.8-14.3-9-23.8-9.9c-13.7-1.4-27-7-40.5-10.7l0.2,0.1C533,195.4,527.7,193,522.4,190.5z M574.1,160.7     c6.4,5.4,13.7,7.3,21.5,7.8C589.4,162.9,581.9,161.2,574.1,160.7z"
   id="path1339" />
			<path
   class="st4"
   d="M494.4,438.7c15.9-1.5,30.8,2.1,45.8,4.9c15.5,2.9,16.6,2.3,21.1-13.7c4.4-15.6,8.5-31.3,13-46.8     c2.7-9.4,0.3-25.4-8.4-25c-24.2,1-46.6-14.7-69.5-19c-10.2-1.9-16.6,16.9-19.6,28.7c-6.3,24.6-13.3,49-20.4,73.4     c-2.7,9.3-0.4,15.6,7.8,18.4c23.4,8.1,44.3,21.3,66.5,31.7c8,3.7,13.1,2.2,15.7-7.7c10.4-38.3,11.1-31.1-20.1-36.9     C515.6,444.8,503.9,445.8,494.4,438.7z"
   id="path1341" />
			<path
   class="st4"
   d="M609.3,222.1c6.3,11.6,2.8,22.4-5,30.6c-3.5,3.7-2,4.6-1.4,7.9c1.9,9-0.6,17.7-6,24.5     c-5.6,7-12.1,1.4-17.9-0.7c-21-7.3-42.4-13.3-62.1-24.5c-7.5-4.2-10.2-8.9-7.8-17.5c4.3-16,8.5-32.1,12.7-48.2     c5.5,1.2,11.1,2.4,16.7,3.6c0,0-0.2-0.1-0.2-0.1c9.2,6.6,17.2,16.3,28.9,16.8c12.2,0.4,23.5,4,35.1,6.8c2.4,0.3,4.8,0.6,7.2,0.9     L609.3,222.1z M535.4,231.4c-3.9-3.9-8.5-6.3-15.8-6.5C524.9,230.4,529.7,231.9,535.4,231.4z"
   id="path1343" />
			<path
   class="st4"
   d="M506.8,282.9c-6.1-3.2-6.9-8.3-3.3-14c3.8-6,10-5.6,14.1-2.4c19.4,14.7,43.1,15.7,64.4,24.3     c9,3.6,13.7,8.2,10.6,19.3c-3.1,10.9-5.6,22.1-8.5,33.1c-2.1,8-6.5,12.2-14.5,9.4c-24.1-8.6-48.2-17.2-72.3-25.9     c-5.9-2.1-8.7-7.2-6.2-13.4c4-9.9,0-25.4,15.7-27.6c19.3,4.2,35.1,20.4,55.9,19.4C545.3,294,525.9,288.9,506.8,282.9z"
   id="path1345" />
		</g>
		<g
   id="g1357">
			<path
   class="st4"
   d="M694.2,359.7c-8.2,31.2-16.6,62.4-24.5,93.7c-3,11.7-6.3,16.6-20.7,18.9c-24.8,4.2-48.2-1.3-72.2-1.8     c-17.1-0.4-18.5-3.5-13.9-21.1c9.1-35.2,18.2-70.3,27.5-105.5c1.8-6.9,2.6-14.8,11.1-17l-0.2-0.1c2.5,1.3,5,2.6,7.5,3.9     c7.1,7.1,15.3,9.3,25.4,10.4c14.6,1.5,28.8,7.3,43.2,11.2l-0.2-0.1C682.8,354.7,688.5,357.2,694.2,359.7z M639.1,390.7     c-6.8-5.7-14.7-7.6-23-8.1C622.8,388.4,630.8,390.2,639.1,390.7z"
   id="path1349" />
			<path
   class="st4"
   d="M690.3,112.3c13.9,9.6,29.6,14.2,45,19.5c15.9,5.4,16.6,6.6,12.3,23.3c-4.2,16.3-8.7,32.5-12.8,48.9     c-2.5,9.9-8.6,13.3-16.4,8.4c-21.9-13.5-47.1-16.2-70.6-24.2c-10.5-3.6-14.8-9-11.3-21.1c7.2-25.4,13.7-51,20.1-76.6     c2.4-9.7,7.9-14.2,17-12.5c25.9,4.8,52.3,3.9,78.4,6.1c9.4,0.8,13.3,4.8,10.5,15.1c-10.7,39.8-6.2,33.7-38.1,22.7     C713.2,117.9,702.9,110.9,690.3,112.3z"
   id="path1351" />
			<path
   class="st4"
   d="M601.4,326.9c-6.8-12.1-3.1-23.3,5.2-31.8c3.7-3.8,2.2-4.7,1.4-8.2c-2-9.4,0.6-18.4,6.3-25.5     c5.9-7.2,12.9-1.4,19.1,0.7c22.4,7.6,45.2,13.9,66.4,25.5c8,4.4,10.9,9.2,8.4,18.2c-4.6,16.6-8.9,33.4-13.3,50.1     c-5.9-1.3-11.8-2.5-17.8-3.8c0,0,0.2,0.1,0.2,0.1c-9.8-6.9-18.4-17-30.9-17.4c-13-0.5-25.1-4.2-37.5-7.1     c-2.6-0.3-5.1-0.6-7.7-0.9L601.4,326.9z M680.2,317.3c4.2,4.1,9.1,6.6,16.9,6.8C691.3,318.3,686.2,316.8,680.2,317.3z"
   id="path1353" />
			<path
   class="st4"
   d="M710.5,263.7c6.5,3.4,7.4,8.6,3.6,14.6c-4,6.2-10.6,5.8-15.1,2.5c-20.7-15.3-46-16.4-68.8-25.3     c-9.6-3.8-14.7-8.5-11.3-20.1c3.3-11.4,5.9-22.9,8.9-34.4c2.2-8.3,6.9-12.6,15.4-9.7c25.8,8.9,51.5,17.9,77.2,27     c6.3,2.2,9.3,7.5,6.7,13.9c-4.2,10.3,0.1,26.4-16.6,28.7c-20.6-4.4-37.5-21.2-59.7-20.2C669.4,252.2,690.1,257.6,710.5,263.7z"
   id="path1355" />
		</g>
		<g
   id="g1367">
			<path
   class="st4"
   d="M730.7,236.2c6.4-28.7,12.9-57.3,19-86.1c2.3-10.8,5.1-15.3,17.3-17.9c21.2-4.5,41.4-0.2,62-0.4     c14.7-0.1,15.9,2.7,12.4,18.9c-7,32.3-14.1,64.6-21.3,96.9c-1.4,6.3-1.9,13.5-9.1,15.8l0.1,0.1c-2.2-1.1-4.4-2.2-6.5-3.3     c-6.3-6.3-13.4-8.1-22-8.7c-12.6-1-24.9-5.8-37.3-9l0.2,0.1C740.6,240.5,735.7,238.4,730.7,236.2z M777.3,206.4     c6,5,12.8,6.5,19.9,6.8C791.4,208,784.5,206.7,777.3,206.4z"
   id="path1359" />
			<path
   class="st4"
   d="M739.4,461.7c-12.2-8.4-25.7-12.1-39.1-16.5c-13.7-4.5-14.4-5.5-11.1-20.9c3.2-15,6.8-29.9,10-44.9     c1.9-9.1,7.1-12.3,13.9-8.2c19.1,11.7,40.8,13.4,61.1,20.1c9.1,3,12.9,7.8,10.2,18.9c-5.6,23.4-10.6,46.9-15.6,70.4     c-1.9,8.9-6.5,13.2-14.3,11.9c-22.4-3.7-45-2-67.4-3.3c-8-0.5-11.5-4-9.3-13.4c8.3-36.6,4.6-30.9,32.2-21.8     C719.6,457.3,728.6,463.4,739.4,461.7z"
   id="path1361" />
			<path
   class="st4"
   d="M811.1,263.5c6.1,10.8,3.1,21.1-3.8,29.1c-3.1,3.6-1.7,4.4-1,7.5c1.9,8.5-0.1,16.8-4.9,23.4     c-4.9,6.8-11,1.7-16.4-0.1c-19.4-6.3-39.1-11.4-57.5-21.3c-7-3.8-9.5-8.1-7.6-16.4c3.6-15.3,6.9-30.7,10.4-46     c5.1,1,10.2,2,15.3,2.9c0,0-0.2-0.1-0.2-0.1c8.6,6,16.2,15,26.9,15c11.2,0,21.6,3.1,32.4,5.4c2.2,0.2,4.4,0.4,6.6,0.6     L811.1,263.5z M743.7,274.5c-3.7-3.6-7.9-5.7-14.6-5.7C734.1,273.9,738.5,275.1,743.7,274.5z"
   id="path1363" />
			<path
   class="st4"
   d="M718.8,324.2c-5.7-2.9-6.6-7.6-3.4-13.2c3.3-5.8,9-5.6,12.9-2.7c18.1,13.4,39.9,13.6,59.6,21.1     c8.4,3.2,12.8,7.3,10.2,18c-2.6,10.4-4.6,21.1-6.9,31.6c-1.7,7.7-5.7,11.7-13,9.3c-22.3-7.4-44.6-14.8-66.9-22.4     c-5.5-1.9-8.2-6.5-6-12.5c3.4-9.5-0.7-24.1,13.7-26.7c17.8,3.4,32.7,18.3,51.7,16.8C754.3,333.5,736.5,329.2,718.8,324.2z"
   id="path1365" />
		</g>
		<g
   id="g1377">
			<path
   class="st4"
   d="M858.7,412.6c-4,28.9-8.1,57.8-11.9,86.8c-1.4,10.8-3.3,15.5-12.1,18.5c-15.2,5.3-29.8,1.9-44.6,2.8     c-10.6,0.7-11.5-2.1-9.3-18.4c4.4-32.6,8.8-65.2,13.3-97.7c0.9-6.4,1.1-13.6,6.2-16.1l-0.1-0.1c1.6,1,3.2,2,4.8,3.1     c4.6,6,9.8,7.5,16,7.8c9.1,0.5,18,4.8,27,7.5l-0.1-0.1C851.5,408.8,855.1,410.7,858.7,412.6z M825.8,444.3c-4.4-4.7-9.3-6-14.5-6     C815.7,443.2,820.7,444.3,825.8,444.3z"
   id="path1369" />
			<path
   class="st4"
   d="M847.9,187.7c8.9,7.9,18.7,11.1,28.4,14.9c10,4,10.5,4.9,8.4,20.4c-2,15.1-4.3,30.2-6.2,45.3     c-1.2,9.1-4.8,12.6-9.8,8.7c-14-10.9-29.6-11.8-44.3-17.6c-6.6-2.6-9.4-7.3-7.7-18.5c3.6-23.6,6.7-47.3,9.8-71     c1.2-9,4.4-13.4,10-12.5c16.2,2.8,32.4,0.2,48.5,0.6c5.8,0.1,8.3,3.5,7,13.1c-5.2,36.9-2.7,31.1-22.7,23.1     C862.2,191.3,855.6,185.6,847.9,187.7z"
   id="path1371" />
			<path
   class="st4"
   d="M800.4,388.6c-4.6-10.6-2.7-21,2.1-29.3c2.2-3.7,1.2-4.4,0.6-7.5c-1.6-8.4-0.3-16.8,3-23.6     c3.4-7,7.9-2.1,11.8-0.6c14.1,5.5,28.4,9.8,41.8,19c5.1,3.5,7,7.7,5.8,16.1c-2.3,15.4-4.4,30.9-6.5,46.4     c-3.7-0.8-7.4-1.6-11.1-2.3l0.1,0.1c-6.3-5.6-11.9-14.3-19.7-13.9c-8,0.4-15.6-2.2-23.4-4.1c-1.6-0.1-3.2-0.2-4.8-0.4     L800.4,388.6z M848.6,374.9c2.7,3.5,5.8,5.4,10.6,5.1C855.5,375.1,852.3,374.1,848.6,374.9z"
   id="path1373" />
			<path
   class="st4"
   d="M865.5,324.3c4.1,2.6,4.9,7.4,2.7,13.1c-2.3,5.9-6.3,5.9-9.2,3.2c-13.3-12.6-28.9-12-43.3-18.7     c-6.1-2.8-9.3-6.8-7.7-17.6c1.7-10.5,2.9-21.2,4.3-31.8c1.1-7.7,3.8-11.9,9.2-9.8c16.2,6.5,32.4,13.1,48.5,19.7     c4,1.6,6,6.2,4.6,12.3c-2.3,9.6,1,24-9.3,27.2c-12.8-2.7-23.9-17-37.5-14.7C839.8,316.4,852.7,319.9,865.5,324.3z"
   id="path1375" />
		</g>
	</g>
</g>
<g
   id="g1403">
		<g
   id="g1399">
			<path
   style="fill:#ffffff"
   inkscape:connector-curvature="0"
   id="path1385"
   d="m 624.1,104.8 c 0,0 -42,20.2 -31.9,64.9 0,0 2.7,8.1 -0.7,9.3 -3.4,1.2 -5.5,1.3 -7,-7 -1.7,-5.3 -1.4,-24.6 8.9,-42.8 5.9,-10.5 15.1,-20.6 29.2,-27.6 l 0.1,-1 c 0.1,-0.7 0.5,-1.3 1.1,-1.6 3.4,-2 13,-7.4 19.9,-3.6 -3.5,7.6 -12.9,9.5 -16.9,10.6 -0.7,0.2 -1.5,0.2 -2,-0.4 z"
   class="st4" />
			<path
   style="fill:#ffffff"
   inkscape:connector-curvature="0"
   id="path1387"
   d="m 593.4,131.2 c 0,0 -3.7,-19.1 -14.8,-23.1 -1.4,2.6 0.2,17.7 11.7,28.1 z"
   class="st4" />
			<path
   style="fill:#ffffff"
   inkscape:connector-curvature="0"
   id="path1389"
   d="m 594.5,135.6 c 0,0 16.5,-5.2 28.6,6.1 0,0 -13.7,9.4 -29.9,-3.5"
   class="st4" />
			<path
   style="fill:#ffffff"
   inkscape:connector-curvature="0"
   id="path1391"
   d="m 602.4,117 c 0,0 4.1,-10.5 -9.4,-25.6 0,0 -6,11.8 7.4,28.2 z"
   class="st4" />
			<path
   style="fill:#ffffff"
   inkscape:connector-curvature="0"
   id="path1393"
   d="m 603.6,119.6 c 0,0 17.1,-0.3 25.1,9.9 0,0 -12.2,5.9 -26.8,-7.1 z"
   class="st4" />
			<path
   style="fill:#ffffff"
   inkscape:connector-curvature="0"
   id="path1395"
   d="m 616.1,105.8 c 0,0 2.1,-12.4 -7.1,-23.3 0,0 -4.1,11.8 3.9,26.3 z"
   class="st4" />
			<path
   style="fill:#ffffff"
   inkscape:connector-curvature="0"
   id="path1397"
   d="m 618.5,107.8 c 0,0 11.7,0.6 18.5,10.7 0,0 -9.2,2.2 -23.6,-8.2 z"
   class="st4" />
		</g>
		<path
   style="fill:#ffffff"
   inkscape:connector-curvature="0"
   id="path1401"
   d="m 399.3,217.9 c 25.5,-11.6 36,-20.1 36,-20.1 0,0 1.8,-1.4 5.7,-4.2 8.1,-5.7 25,-17.9 53.3,-38.5 24.4,-14.8 35.9,-16.8 44,-17 9.9,-0.3 19.8,1.5 29.1,5 11.1,4.1 21.6,9 21.6,9 0,0 -44.5,25.2 -64.5,84.2 -5,10.8 -8,21.5 -13.7,31.5 -21.3,37.4 -56.7,82.2 -102.3,100.6 -61.3,25.8 -156.6,36.2 -209.2,31.3 -47.6,-1.8 -59,-3.3 -59,-3.3 0,0 -36.7,-6.2 -121.5,35.3 0,0 46.6,-46.1 54.2,-90.8 0,0 56.6,24.4 105.8,-23.5 0,0 -103.7,-39.7 -157.5,-121.6 0,0 133.3,-53.2 234.1,-38.3 0,0 -50.4,-29.1 -43.1,-88.9 0,0 172.3,27.2 221.7,114.2 l 8.1,16.5"
   class="st4" />
	</g><g
   id="g1467">
		<path
   style="fill:#770606"
   inkscape:connector-curvature="0"
   id="path1405"
   d="m 177.3,143.1 c 13.2,0.3 25.9,9.7 29.5,22 1,3.4 1.8,6.8 -3.5,7.2 -1,0.1 -2.1,0.3 -2.1,1.5 0,1.2 1,1.8 2,1.8 5.3,0 4.6,3.7 4.4,6.9 -0.5,8.4 -3.1,12.2 -10.1,14.2 5.1,1.5 3.7,4.1 1.7,6.7 -5,6.7 -11.3,11.9 -18.7,15.8 -1.3,0.7 -3.4,1 -3.3,2.9 0.1,1.8 2.1,2.2 3.5,2.7 12.1,4.9 17.9,14.7 19.9,26.7 1.8,10.8 -1.3,12.9 -11.4,9 -0.4,-0.2 -0.9,-0.8 -1.3,0 0,0 0.5,0.4 0.8,0.6 1,2.1 3,3.2 5,3.8 5.3,1.5 5.5,4.8 3.5,9.1 -1.6,3.4 -3.2,6.7 -5.1,9.9 -3,5.1 -6.9,8.3 -13.4,9.1 -11.4,1.6 -22,6 -30.7,13.8 -4.6,4 -9.7,5.6 -15.6,5.6 -29.2,0 -58.4,0.1 -87.6,0 -7,0 -8,-1.3 -6.7,-8.1 5.9,-30.6 11.6,-61.3 17.4,-91.9 4.1,-21.1 8.2,-42.3 11.6,-63.6 1.5,-9.2 1.9,-9.4 11.4,-9.4 22.7,0 45.5,0.1 68.2,-0.1 5.1,-0.1 9.9,2.1 15.1,1.4 1.7,-0.3 3,1.5 3.4,4.2 -4.6,-0.6 -9.1,-1.1 -13.5,-1.7 -0.1,0.4 -0.2,0.8 -0.2,1.2 6.2,2.1 12.4,4.2 18.7,6.2 1.2,0.4 3.1,0.8 3.8,-0.6 1,-1.9 -1.3,-2.5 -2.1,-3.7 2.4,-0.2 4.3,-1.2 5.4,-3.2 z m -9.6,36.6 c 0.5,0.5 1.1,1.5 1.7,0.7 0.6,-0.8 -0.6,-1 -1.1,-1.4 -1.2,-0.6 -2.2,-2 -3.9,-0.9 0.6,1.6 2.1,1.2 3.3,1.6 z m -44.5,-22.6 c -0.3,0.5 -0.6,1 -1,1.4 -1.2,1.3 -3.7,2.5 -0.8,4.4 1.7,1.1 3.7,3 5.6,0.8 1.8,-2.1 -0.5,-3.4 -1.7,-4.7 -0.6,-0.7 -1.4,-1.3 -2.1,-1.9 -5.9,-4 -12.7,-4.3 -19.4,-4.8 6,3.5 12.6,4.5 19.4,4.8 z m -7.1,117.7 c 0.9,0.9 1.6,2.2 3.4,1.6 -0.7,-1.7 -2.2,-1.2 -3.4,-1.6 3.5,-1.7 7.3,-1.1 11,-1.1 5.4,0 10.6,-0.7 15.5,-2.9 7.4,-3.3 13.6,-15 11.6,-21.8 -0.1,-0.4 -0.7,-0.9 -1.2,-1 -4.6,-1.5 -8.6,-4.8 -13.8,-4.8 -12.4,0 -24.7,-0.1 -37.1,-0.1 -3.7,0 -5.8,1.7 -6.5,5.4 -1.2,6.6 -2.5,13.1 -3.7,19.7 -0.6,3.4 0.8,5.5 4.2,5.5 6.7,-0.1 13.3,1.7 20,1.1 z m -12.2,-71.5 c -0.6,4 1.4,5.4 5,5.5 5.9,0.1 11.9,-0.4 17.6,0.6 8.8,1.6 16.4,-1.7 23.8,-5 5.7,-2.5 9,-10.3 7.8,-15.8 -1.4,-6.5 -6.5,-8.5 -12.1,-9.3 -10.9,-1.6 -21.9,-0.7 -32.8,-0.6 -2.9,0 -4.7,1.6 -5.3,4.5 -1.4,6.6 -2.7,13.3 -4,20.1 z m 60.8,71.5 c -1.3,0.2 -3.4,-1 -4.2,1.5 -0.3,0.9 -1.1,1.8 -0.3,2.7 1.3,1.5 3.2,1.6 4.8,0.9 2.6,-1.1 4.4,-0.3 6.2,1.6 1.7,1.8 4.1,2.1 6.5,2.2 1.3,0.1 3,0.2 3.5,-1.4 0.7,-2 -1,-2.7 -2.4,-3.4 -4.3,-2.3 -8.9,-3.7 -14.1,-4.1 z M 111.3,170.7 c 1.5,0 3,0 3.7,-1.4 0.4,-0.8 -0.2,-1.9 -0.8,-1.9 -5.3,0.3 -10.2,-2.3 -15.5,-2.1 -0.8,0 -1.6,0.5 -1.4,1.4 0.1,0.4 0.7,1.1 1.1,1.1 4.5,0.2 8.7,2.1 12.9,2.9 z m 68.2,71.3 c 3.6,1.3 7,1.5 10.4,0.5 0.6,-0.2 1.2,-1 1.5,-1.6 0.1,-0.2 -0.7,-1.2 -0.9,-1.2 -3.5,0.9 -7.7,-2.5 -11,2.3 z M 92.2,183.5 c 3.2,2.1 5.3,4.6 9.1,3.5 0.4,-0.1 1.1,-1.1 1,-1.2 -1.8,-2.8 -4.9,-2.7 -7.7,-3.3 -0.4,-0.2 -1,0.3 -2.4,1 z m 32,43.8 c 3.1,4.4 3.1,4.4 7.3,1.4 -2.3,-1.1 -4.5,-1.8 -7.3,-1.4 z m 22.7,-3.4 c 4,2 6.7,3.2 9.9,2.7 -2.6,-1.4 -5,-3.6 -9.9,-2.7 z m -9,-60.5 c -0.2,-0.9 -0.8,-1.3 -1.7,-1.3 -0.9,0.1 -1.3,0.8 -1.3,1.7 0,1.2 0.6,1.9 1.9,1.5 0.8,-0.4 1.1,-1.1 1.1,-1.9 z m 18.3,77.9 c -0.1,-1.1 -0.7,-1.8 -1.7,-2 -1.9,-0.4 -1.7,1.1 -1.8,2.2 -0.1,1.2 0.5,1.9 1.7,1.7 1,-0.1 1.7,-0.7 1.8,-1.9 z m -14.4,-7.9 c -0.4,-1 -0.5,-2.4 -2,-2.3 -1.2,0.1 -1.2,1.3 -1,2.2 0.2,1.2 0.8,2.2 2.2,2 0.9,-0.3 0.9,-1.1 0.8,-1.9 z m 55.3,-60.7 c -2.5,-0.2 -3.8,0.5 -4.4,2.5 -0.1,0.2 0.4,0.8 0.6,0.8 2.2,0.2 3.3,-0.8 3.8,-3.3 z"
   class="st6" />
		<path
   style="fill:#770606"
   inkscape:connector-curvature="0"
   id="path1407"
   d="m 1017.5,376 c -3.2,-0.5 -6.3,-0.9 -9.5,-1.4 -2.8,-0.9 -5.6,-1.7 -8.3,-2.7 -2.2,-0.8 -3.2,0.4 -4.2,2.1 -0.5,0.9 -1.1,2.3 0,2.5 4.7,0.9 8.4,6.3 14.2,3.1 -2.6,-2.7 -6.7,-1.5 -9.1,-4.4 2.8,-0.9 5.1,0.6 7.6,0.8 4.3,0.9 8.4,2.6 12.9,2.5 v 0 c 2.7,2.2 6.1,2.4 9.2,3.5 1.6,0.5 4.6,0.2 2.7,3.5 -3.2,-1.8 -6.6,-3 -10.3,-2.5 2.9,2.6 6.6,2.4 10.1,2.8 5.9,3.8 9.3,11.3 7.9,18 -1.3,6.2 -6.2,3.7 -10,4.1 0,0 -0.2,0.2 -0.2,0.2 10.2,5.2 10.2,6.4 5.5,17.6 -8.7,20.7 -24.4,33.3 -45.5,39.3 -16.7,4.8 -34,6.4 -51.1,2.7 -17.8,-3.9 -35.8,-8.2 -49.4,-21.9 -1.4,-1.4 -4.4,-2.6 -3.3,-4.9 1.1,-2.3 4.1,-2.8 6.7,-2.6 2.1,0.1 4.2,0.5 6.3,0.7 0.7,-1.4 -0.4,-1.5 -1,-1.7 -8.2,-2.5 -8.2,-2.5 -1.8,-8.8 5.1,-4.9 10.4,-9.5 15.3,-14.7 3.5,-3.7 6.1,-4.1 10.3,-0.7 14.4,11.7 31.1,17.1 49.7,16.1 4.6,-0.2 9,-1.2 12.8,-3.8 7.7,-5.2 7.1,-13.8 -1.4,-18 -6.7,-3.3 -14,-5 -21.3,-6.8 -11.2,-2.8 -22.4,-5.8 -32.7,-11.3 -16,-8.6 -22.6,-21.5 -19.8,-39.5 3.9,-24.9 18.2,-42 41.1,-51 28.7,-11.3 57.4,-9.9 85.4,3.4 4.8,2.3 9.1,5.3 13.1,8.8 2.4,2.1 3.3,4.3 0.8,7 -7.9,8.7 -15.6,17.6 -23.6,26.2 -2.3,2.5 -5.6,4.8 -6.2,-1.6 -0.1,-1.3 -0.9,-2.4 -2.2,-2.4 -11,-0.5 -20.3,-6.9 -31.1,-8.2 -8,-1 -15.6,-1.2 -22.7,3.3 -4,2.5 -7.5,-1.1 -11.4,-0.7 -0.7,0.1 -1.5,0 -2.9,0 1.2,2.1 3.1,2.2 4.5,2.7 3,1.1 5.2,2.7 5,6.3 -0.2,5.1 3,7.8 7.2,9.7 6.7,3 13.8,4.6 20.8,6.3 9.3,2.3 18.6,4.8 27.4,8.7 3.3,1.5 4.8,3.3 2.4,6.7 0.1,0.3 0.1,0.6 0.1,1 z m -103.5,60.1 -0.4,-0.2 0.4,0.2 c 3.4,2.5 7,4.3 11.3,3.7 -3.4,-2.2 -7.1,-3.7 -11.3,-3.7 z m 57.9,4.5 c -0.7,-0.5 -0.8,-0.2 -0.5,0.5 -0.8,0.8 -2.1,1.8 -0.2,2.6 2.1,0.9 4.4,1.6 6.6,2.3 1,0.3 2.1,0.1 2.4,-1 0.3,-1.2 -0.8,-1.6 -1.6,-2 -2.2,-0.9 -4.4,-1.7 -6.7,-2.4 z m -31.4,-7 c 7.7,3.4 16,4.4 24.5,2.7 -8,-1.6 -16.3,-1.2 -24.5,-2.7 z m -11.6,-93.7 c 4.7,2.9 9.4,6 15.5,4.6 -4.9,-2.3 -9.7,-4.9 -15.5,-4.6 z m 32.6,17.8 c 3.3,4.5 7.4,6.2 12.7,3.4 -4.2,-1.2 -8.4,-2.3 -12.7,-3.4 z m -15.2,27.4 c 1.8,5.8 4.3,3.5 7.7,1.6 -2.8,-1.5 -4.9,-1.5 -7.7,-1.6 z M 941,354.3 c -2.2,-1.2 -4.5,-2.4 -6.7,-3.6 0.9,3.7 3.5,4.4 6.7,3.6 z m 12.6,97.4 c -2.5,-1.8 -5.2,-2.7 -8.4,-1.7 2.6,1.4 5.3,2.4 8.4,1.7 z M 1009.8,311 c 1.7,2 3.5,1.7 5.2,0.8 0.2,-0.1 0.3,-1.2 0.1,-1.4 -1.5,-1.3 -3.1,-0.9 -5.3,0.6 z m -9.7,114.7 c -3.3,-2 -5.3,-3.3 -8.3,-2.3 2.2,2.4 4.4,2.6 8.3,2.3 z m -2.4,20.6 c 2.6,0 4.3,1.5 5.8,-1.3 -1.8,-0.4 -3.4,-0.8 -5.8,1.3 z m -73.4,-97.2 c -2.1,-1.6 -3.7,-2.2 -6.4,-1.1 2.3,1.1 3.6,2.1 6.4,1.1 z m 38.3,43.1 c -0.9,0.1 -1.3,0.5 -0.9,1.1 0.3,0.4 0.9,0.7 1.4,0.7 0.7,0.1 1.1,-0.5 0.7,-1 -0.2,-0.4 -0.8,-0.6 -1.2,-0.8 z m 9.9,3.7 c -0.6,-0.2 -1.2,-0.5 -1.9,-0.6 -0.5,-0.1 -1.3,0.2 -1,0.8 0.3,0.5 1.2,0.8 1.8,1 0.5,0.1 1.1,-0.1 1.1,-1.2 z"
   class="st6" />
		<g
   id="g1413">
			<path
   style="fill:#770606"
   inkscape:connector-curvature="0"
   id="path1409"
   d="m 446.7,431.5 c 2.5,4.6 -2.2,6.7 -3.8,9.6 -5.6,10.1 -9.5,11.4 -20.2,8 -1.1,-0.4 -2.2,-0.7 -3.4,-0.9 -0.5,-0.1 -1.1,0.1 -2.4,0.3 2.1,1.6 3.7,2.8 5.2,4.1 -1.2,-0.1 -2.3,-1.4 -3.6,-0.2 1.2,1.5 2.4,0.6 3.6,0.1 1.9,0.2 4.4,-0.3 4.9,2 0.4,2 -2,2.7 -3.4,3.4 -11.2,5.5 -22.4,11.1 -35.5,8.5 -0.4,0 -0.9,0 -1.3,0 0.3,0.2 0.6,0.4 0.9,0.5 0.3,2.9 -2,1.9 -3.2,1.9 -12.4,0.3 -25.1,1.3 -36.4,-5.4 -3.4,-2 -8,-0.3 -10.8,-3.9 4.6,-1.3 9.4,-0.1 14.1,-1 -5,-2.1 -10.1,-3.7 -15.2,-5.2 -1.6,-0.5 -3.2,-0.6 -3.2,1.9 -3.8,0.3 -3.8,0.3 -2.1,3.7 -1.8,1.2 -3.4,0 -4.9,-0.6 -7.7,-3.1 -13.4,-9.2 -20.2,-13.6 -3.4,-2.2 -3.7,-5.1 -0.9,-8.4 7.9,-9.2 14.2,-19.2 17.9,-30.8 1.7,-5.3 4.3,-3.8 7.1,-0.9 12.1,12.5 26.3,21.1 43.7,23.6 8.1,1.1 16.3,2.5 24.4,0 5.5,-1.7 7.6,-6.4 8.6,-11.5 1,-5.2 -2.6,-7.9 -6.7,-9.8 -6.4,-3 -13.3,-4.6 -20.2,-6.3 -11.8,-3 -23.6,-5.9 -34.3,-12 -15.8,-9 -21.8,-22 -18.8,-39.9 1,-5.9 3.4,-8.9 9.6,-8 0,0 -0.1,-0.1 -0.1,-0.1 0.8,1.5 2,2.3 3.6,2.7 10.6,2.4 21.2,4.8 31.8,7.3 0.8,0.2 1.5,0.4 2.3,0.7 20.1,6.2 41.2,9.1 60.5,18.2 4.3,2 8.6,4.4 12.3,8.9 -5.6,0.8 -10.4,-2.2 -16.2,-1.3 4.2,4.1 8.9,4.3 13.2,5.5 10.2,2.8 13.5,5.6 13.2,16.1 -0.3,9.2 -0.1,18.7 -4.3,27.4 -1.2,2.6 -2.4,5 -5.7,5.2 -0.3,-0.1 -0.7,-0.1 -1,-0.2 0.3,0.2 0.6,0.3 0.9,0.4 z m -58.8,14.1 v 0 c 0.1,-4.4 -0.2,-4.6 -5,-3 0.7,0.5 1.3,1 1.9,1.4 1.1,0.6 2.1,1.1 3.1,1.6 z m -6.8,-56.5 c -0.1,0.6 -0.3,1.2 -0.4,1.8 2.9,0.9 5.7,2.5 8.6,2.6 16.6,0.5 31.5,7.4 47.2,11.3 3.1,0.7 5.4,3.3 8.7,3.3 1.4,0 2.9,-0.3 3.2,-1.9 0.3,-1.4 -0.9,-2 -2,-2.5 -1.1,-0.4 -2.2,-0.8 -3.4,-1.1 -15,-3.7 -29.9,-7.5 -45,-11 -5.5,-1.2 -11.2,-1.7 -16.9,-2.5 z m -3.3,49.4 c 0.2,-0.7 0.3,-1.3 0.5,-2 -8.4,-1.5 -16.4,-4.9 -25.3,-4.5 8.2,2.2 16.5,4.3 24.8,6.5 z M 393.6,365 c 5.1,2 10.4,2.9 16.7,2.9 -4.8,-3.2 -9.5,-4 -16.7,-2.9 z m -10.1,91.7 c 2.8,2.7 5.6,5.2 10.9,5.4 -3.4,-3.8 -6.7,-5.4 -10.9,-5.4 z m 8.9,-87.6 c -3.4,-1.4 -5.5,-2.3 -8.6,-1.1 2.8,1.4 4.9,2.2 8.6,1.1 z M 363,383.5 c 3.8,1.8 6.6,2.3 9.5,1.6 -2.7,-0.7 -5.2,-2.5 -9.5,-1.6 z m -23.1,-26 c 2.7,1.4 4.5,2 7.6,1 -2.9,-1.5 -4.6,-2.3 -7.6,-1 z m 40.4,28.9 c -0.3,-0.1 -0.6,-0.2 -0.9,-0.3 0,0.3 -0.1,0.6 0,0.8 0,0.1 0.4,0.2 0.4,0.1 0.3,-0.1 0.4,-0.4 0.5,-0.6 z"
   class="st6" />
			<path
   style="fill:#770606"
   inkscape:connector-curvature="0"
   id="path1411"
   d="m 373.8,351.4 c -0.8,-0.2 -1.5,-0.4 -2.3,-0.7 -0.5,-1.4 -1.8,-2 -3.1,-2.4 -10.7,-2.8 -21.2,-6.6 -32.3,-7.6 0,0 0.1,0.1 0.1,0.1 -3.4,-2.3 -6.6,-4 -4.3,-9.7 4.4,-10.8 11.2,-4 17.3,-2.8 -0.1,-3.8 -3.5,-3.6 -6.3,-6.3 11.9,0.3 21.7,-4.4 32,-7.1 5.7,1.4 10.5,6.1 18,5.7 -5.7,-4.3 -11.5,-5.2 -17.1,-6.7 3.4,-4.4 7.9,-5.4 13.1,-3.9 5.7,1.7 11.5,3.2 17.2,4.8 0.2,-0.5 0.3,-1.1 0.5,-1.6 -4.7,-1.5 -9.5,-2.9 -14.1,-4.6 -5.5,-2 -5.4,-3.1 -2.4,-8 4.7,-7.5 11,-9.9 19.8,-9.2 15.6,1.3 30.6,4.3 44.5,11.8 7,3.8 7.9,7.6 1.9,12.5 -2.9,2.4 -1.5,5.3 -2.9,7.7 -4,6.8 -8.3,13.3 -13.4,19.3 -2.5,2.9 -5.1,2.4 -7.7,0.5 -8.5,-6.4 -19.7,-7.4 -28.2,-14.1 -1.4,-1.1 -3.7,-0.9 -5.6,-1.3 -1.7,-1.6 -3.6,-2.7 -6.2,-1.2 2,0.5 3.9,1 5.9,1.5 1.2,1.6 0.7,2.2 -1.2,2.6 -3.6,0.6 -7.3,1.3 -10.8,2.4 -7.7,2.3 -11,7.4 -10.5,15.9 0.2,1.2 -1.2,1.5 -1.9,2.4 z m 5.5,-30.1 c 2.9,1.7 4.8,2.8 8.4,2.1 -2.8,-1.7 -4.6,-3 -8.4,-2.1 z m 47.3,-8.9 c 2.8,1.4 4.2,2.4 6.2,1.3 0.1,0 0,-0.4 0,-0.6 -1.3,-1 -2.8,-1.3 -6.2,-0.7 z"
   class="st6" />
		</g>
		<g
   id="g1425">
			<path
   style="fill:#770606"
   inkscape:connector-curvature="0"
   id="path1415"
   d="m 656.2,295.7 c 5.8,0 11.2,1.7 16.5,4 0.6,0.8 1.4,1.1 2.4,0.9 14.7,1.6 25.6,9.5 34.8,20.2 -0.2,0.6 -0.4,1.2 -0.6,1.7 -12.7,-3.1 -25.3,-6.2 -38,-9.3 -0.1,0.5 -0.3,1 -0.4,1.5 6.5,2.2 13,4.7 19.6,6.6 7,2 14,3.5 21.1,5 2.8,0.6 3.8,2.5 4.9,4.6 6.3,12.1 7.5,25 6.6,38.3 -0.2,3.4 -1.9,4.9 -5.4,4.3 -1.8,-0.3 -3.7,-1.6 -5.5,0.2 0.9,2.7 3.6,2 5.4,2.8 1.6,0.8 4.3,0.5 3.8,3.5 -0.5,2.4 -2.4,2.8 -4.5,2.9 -1,0 -2,0.1 -2.9,0.1 h 0.1 c -6.6,-3.4 -13.8,-5 -21,-6.5 -4.8,-1 -9.5,-1.9 -14.2,-3.2 -5.4,-1.6 -6.4,-4.7 -3.7,-10.3 2.2,1 4.4,2.2 7,0.2 -2.3,-0.2 -4.5,-0.3 -6.8,-0.5 -1.6,-1.2 -3,-2.6 -3.6,-4.5 -5,-14.8 -17.4,-19.1 -31,-20.9 -7.9,-1 -16,-0.3 -24,-0.4 -2.6,0 -3.3,0.7 -3.5,3.7 -0.4,5.8 0.7,12.3 -5.2,16.4 0,0 0.1,0 0.1,0 -2.9,-1.8 -6.2,-2.1 -9.4,-2.7 -8.6,-3.7 -18.5,-3.4 -26.8,-8 -4.9,-1.2 -6.3,-3.9 -5.2,-9.1 2.2,-9.9 3.7,-20 5.6,-30 2,-10.6 2.9,-12.4 13.6,-12.4 20.7,0 41.5,-1.7 62.2,0.9 1.6,0.5 3.2,1 4.8,1.5 0.7,0.3 1.4,0.6 2.1,1 2.4,0.5 4.7,0.9 8.3,1.6 -2.7,-2.5 -5,-2.4 -7,-3.1 -0.2,-0.1 -0.2,-0.5 -0.2,-1 z m -52.9,41.5 c 1.9,-0.7 1.5,-1.7 0,-2.1 -2.8,-0.8 -5.7,-1.4 -8.5,-1.9 -0.9,-0.2 -2.1,-0.3 -2.5,0.8 -0.4,1.1 0.5,1.8 1.3,2.3 4.2,2.4 8.5,4.6 14.5,4.2 -2.1,-1.4 -3.5,-2.3 -4.8,-3.3 z m 61.1,2.9 c -5.5,-4.1 -18.2,-8.7 -23,-8.8 -1.4,0 -3.3,-0.4 -3.5,1.3 -0.3,2.6 2,1.7 3.4,1.8 3.8,0.1 7.2,0.9 10.5,3 3.4,2.2 7.3,2.4 12.6,2.7 z m -77,-8.4 c 0,-0.2 -0.1,-0.5 -0.1,-0.5 -0.3,0 -0.6,0.1 -0.9,0.2 0,0.2 0.1,0.5 0.1,0.5 0.3,0 0.6,-0.1 0.9,-0.2 z m 120.4,11.1 c 0,-0.2 0,-0.4 -0.1,-0.4 -0.1,-0.1 -0.4,-0.1 -0.5,-0.1 -0.4,0.3 -0.4,0.5 0.1,0.7 0.2,-0.1 0.4,-0.2 0.5,-0.2 z m -10.4,-2.4 0.3,-0.3 -0.4,-0.1 z"
   class="st6" />
			<path
   style="fill:#770606"
   inkscape:connector-curvature="0"
   id="path1417"
   d="m 619.8,443.3 c -2.6,-1.9 -5.7,-2.4 -8.8,-3.2 -17.9,-4.3 -35.7,-8.8 -53.6,-12.8 -5.8,-1.3 -7.3,-4.1 -5.9,-9.5 1.1,-4.5 1.7,-9.2 2.7,-13.8 1.2,-5.7 3.4,-6.7 8.7,-4.4 11,4.7 22.4,8.1 34.6,7.2 h -0.1 c 2.5,2.8 3.5,5.9 2.4,9.7 -1.3,4.7 0.3,6.9 5.4,7 17.2,0.5 34.1,0 48.7,-11.1 4.1,-3.1 9.2,-1.3 13.7,-0.5 10.2,1.8 20.3,4.3 30.3,6.7 6.1,1.5 6.5,2.5 2.7,7.2 -8.2,10.2 -18.1,18.3 -29.4,24.9 -3.9,2.3 -7.7,0.8 -11.8,0.4 -5.4,-0.5 -10.8,-0.9 -16.2,-1.4 -0.8,-1.4 -2,-2.3 -3.5,-2.9 -4.7,-0.8 -9.4,-1.6 -14,-2.4 h 0.1 c -2,-1 -4,-1.3 -6,-1.1 z m 40.6,-8.5 c -0.5,-0.8 -1.1,-1.9 -2.4,-1.9 -0.9,0 -1.5,0.6 -1.4,1.4 0.1,1.4 1.3,1.8 2.5,1.9 0.8,0.1 1.4,-0.1 1.3,-1.4 z"
   class="st6" />
			<path
   style="fill:#770606"
   inkscape:connector-curvature="0"
   id="path1419"
   d="m 625.6,444.4 c 7.3,3.6 13.6,9.6 22.8,8.6 2.6,-0.3 7,-0.3 7.2,3.2 0.3,3.1 -3.9,3.2 -6.4,3.9 -28.2,8.1 -57.1,7.5 -85.9,6 -19.6,-1 -20.2,-2.8 -16.7,-21.8 3.6,-20.1 1.8,-17 20,-12.9 14.3,3.2 28.5,6.8 42.8,10.3 3.4,0.8 6.8,1.8 10.4,1.7 h -0.1 c 1.9,0.9 3.9,1.1 5.9,1 z m -16.6,9.4 c -3.9,-2.9 -8.2,-3.8 -12.9,-3.4 3.8,3 8.4,3.1 12.9,3.4 z"
   class="st6" />
			<path
   style="fill:#770606"
   inkscape:connector-curvature="0"
   id="path1421"
   d="m 597.5,406.7 c -6.4,-1.7 -12.7,-3.7 -19.1,-5.1 -6.6,-1.5 -12.3,-4.9 -18.4,-7.3 -1.5,-0.6 -3.2,-1.4 -2.8,-3.3 1.4,-5.8 0.2,-12.1 3.7,-17.5 0.2,-0.3 0.2,-0.6 0,-0.9 0,-1.2 0,-2.5 0,-3.7 12.9,3.4 25.8,6.9 38.6,10.3 0.1,-0.5 0.3,-1 0.4,-1.5 -12.7,-3.6 -25.3,-7.3 -38,-10.9 -1,-6 2.3,-11.3 3,-17 0.3,-2.4 2.3,-2.2 4.1,-1.9 2.1,1.3 4.1,2.8 6.7,3.3 7.6,1.5 15.2,3.1 22.8,4.7 3,1 6.1,1.7 9.4,1.4 h -0.1 c 0.2,0.9 1.8,2.2 -0.5,2.5 -2.3,0.3 -3.1,1 -0.9,2.6 2.8,2 2.4,4.6 1.9,7.3 -1.9,10.1 -3.8,20.3 -5.7,30.4 -0.4,3.2 -1.3,6.1 -5.1,6.6 -0.1,0 0,0 0,0 z M 592.1,381 c -8.2,-3.4 -16.7,-5.6 -25.5,-6.4 8.2,3.4 16.7,5.5 25.5,6.4 z m 5.3,18.9 c -6.3,-3.1 -10.9,-7 -17.2,-6.4 5,2.7 9.7,6.5 17.2,6.4 z m -15.3,-31.2 c 2.7,2.4 4.6,3.2 7.5,2.8 -1.9,-2.3 -3.9,-2.7 -7.5,-2.8 z m -7.9,12.8 c 1.2,1.2 2.4,1.5 4.2,1 -1.5,-1.3 -2.6,-1.8 -4.2,-1 z m 24.3,1 c -0.1,0.1 -0.2,0.3 -0.2,0.4 0.1,0.1 0.3,0.2 0.4,0.3 0.1,-0.2 0.2,-0.5 0.2,-0.7 0,0.1 -0.2,0.1 -0.4,0 z m -14.1,1.1 -0.3,0.3 0.4,0.1 z"
   class="st6" />
			<path
   style="fill:#770606"
   inkscape:connector-curvature="0"
   id="path1423"
   d="m 709.1,408 c 1.2,6.8 -1.2,9.4 -7.6,8.2 -11.7,-2.2 -23.4,-4.3 -35.1,-6.8 -6.1,-1.3 -6.5,-2.3 -3.1,-7.2 4.5,-6.5 7.8,-13.7 9.3,-21.4 1,-5.5 3.6,-6 8.2,-4.8 8.9,2.3 17.5,5.5 26.7,6.5 2.1,0.2 4.3,0.4 6.4,0.6 0,0 -0.1,0 -0.1,0 6,2.3 6.4,6.5 3.9,11.6 -2.3,4.7 -2.2,10.9 -8.5,13 0,0 -0.5,-0.1 -0.5,-0.1 z m -22.3,-22.4 c 0.3,0.1 0.6,0.1 0.9,0.2 -0.2,-0.1 -0.5,-0.2 -0.9,-0.2 -0.3,-0.1 -0.5,-1 -1,-0.2 0.4,0 0.7,0.1 1,0.2 z m 8.2,18 c 2.5,1.8 5,3.2 9.3,2 -3.7,-1.8 -6.3,-2.7 -9.3,-2 z m -18.4,-20.4 c 0.6,0.2 1.3,0.6 2,0.7 0.5,0.1 1.3,-0.1 0.8,-0.9 -0.2,-0.4 -1,-0.6 -1.5,-0.7 -0.5,-0.1 -1.2,-0.2 -1.3,0.9 z"
   class="st6" />
		</g>
		<g
   id="g1435">
			<path
   style="fill:#770606"
   inkscape:connector-curvature="0"
   id="path1427"
   d="m 485.9,346.4 c 2.6,-13.7 5.2,-27.3 7.7,-41 0.9,-5.1 2.3,-7.3 8.7,-8.8 11.1,-2.6 21.9,-1.1 32.8,-1.7 7.8,-0.4 8.5,0.9 7.1,8.6 -2.8,15.4 -5.7,30.8 -8.6,46.1 -0.6,3 -0.6,6.4 -4.4,7.7 h 0.1 c -1.2,-0.5 -2.4,-0.9 -3.5,-1.4 -3.5,-2.8 -7.3,-3.5 -11.9,-3.6 -6.7,-0.1 -13.3,-2.1 -20,-3.3 h 0.1 c -2.8,-0.8 -5.5,-1.7 -8.1,-2.6 z m 23.8,-15.2 c 3.3,2.2 6.9,2.8 10.7,2.7 -3.2,-2.3 -6.9,-2.7 -10.7,-2.7 z"
   class="st6" />
			<path
   style="fill:#770606"
   inkscape:connector-curvature="0"
   id="path1429"
   d="m 496.7,452.3 c -6.7,-3.6 -13.9,-5.1 -21.1,-6.8 -7.4,-1.8 -7.8,-2.2 -6.4,-9.6 1.3,-7.1 2.8,-14.2 4,-21.4 0.8,-4.3 3.4,-6 7.1,-4.2 10.4,5 21.9,5.3 32.8,7.9 4.9,1.2 7,3.4 5.9,8.7 -2.3,11.1 -4.3,22.3 -6.3,33.5 -0.7,4.2 -3.1,6.4 -7.2,6 -11.9,-1.2 -23.8,0.1 -35.7,0.1 -4.3,0 -6.2,-1.6 -5.3,-6.1 3.4,-17.4 1.6,-14.7 16.4,-11 5.2,1.3 10.1,3.9 15.8,2.9 z"
   class="st6" />
			<path
   style="fill:#770606"
   inkscape:connector-curvature="0"
   id="path1431"
   d="m 529.1,357.2 c 3.5,4.9 2.2,9.9 -1.2,13.8 -1.6,1.8 -0.8,2.1 -0.3,3.6 1.2,3.9 0.4,7.9 -1.9,11.1 -2.4,3.3 -5.8,1 -8.7,0.4 -10.4,-2.5 -21,-4.4 -31,-8.6 -3.8,-1.6 -5.3,-3.6 -4.5,-7.5 1.5,-7.3 2.8,-14.6 4.2,-21.9 2.7,0.3 5.5,0.7 8.2,1 h -0.1 c 4.7,2.6 9,6.6 14.6,6.4 5.9,-0.3 11.5,0.9 17.2,1.7 1.2,0 2.4,0 3.5,0 z m -35.3,6.9 c -2,-1.6 -4.3,-2.5 -7.9,-2.3 2.8,2.2 5.2,2.7 7.9,2.3 z"
   class="st6" />
			<path
   style="fill:#770606"
   inkscape:connector-curvature="0"
   id="path1433"
   d="m 482,388.1 c -3.1,-1.2 -3.7,-3.4 -2.2,-6.1 1.6,-2.8 4.6,-2.8 6.7,-1.6 9.9,5.9 21.4,5.4 32.1,8.5 4.5,1.3 7,3.1 5.9,8.2 -1.1,5 -1.8,10 -2.8,15 -0.7,3.7 -2.7,5.7 -6.6,4.7 -12,-2.9 -24,-5.9 -36,-8.9 -2.9,-0.7 -4.5,-2.9 -3.5,-5.7 1.5,-4.6 -1,-11.3 6.5,-12.9 9.5,1.2 17.8,7.8 27.8,6.6 -8.9,-4.3 -18.4,-5.9 -27.9,-7.8 z"
   class="st6" />
		</g>
		<g
   id="g1447">
			<g
   id="g1443">
				<path
   style="fill:#770606"
   inkscape:connector-curvature="0"
   id="path1437"
   d="m 764.5,433.8 c -8.3,-4.3 -17.6,-5.1 -26.4,-7.7 -6.9,-2 -7.5,-3.4 -3.9,-9.7 0.6,-1.1 0.4,-1.6 0.2,-2.5 -1.5,-7 1.4,-13.5 2.6,-20.1 0.4,-2.1 2.3,-3 4.1,-2.2 11.6,5 24.4,5.4 36.2,9.6 3.9,1.4 4.8,3.7 4.2,7.6 -2.5,17.1 -2.5,17.4 -18.8,12.1 -6.8,-2.2 -13.8,-1.2 -20.7,-2.6 2.4,2.9 5.2,5 8.7,5.5 10.7,1.7 20.7,6.3 32,6.9 6,0.3 12.6,3.4 19,5.4 4.3,1.3 8.6,4.2 13.5,2.4 v 0 c 3.5,-0.2 7,-1.1 10.5,-0.3 0.3,0.1 0.6,0.2 0.9,0.4 1.3,-0.4 2.6,-0.8 3.9,-1.2 l -0.1,0.1 c 7.4,4.6 16.2,4.3 24.1,6.9 2.2,0.7 4.6,1.2 6.8,1.9 1.1,0.4 2.8,0.9 2.9,1.6 0.8,5.2 0,10.3 -1.4,15.3 -0.9,3 -3.6,3.4 -6.2,3.3 -8.9,-0.3 -18.1,1.7 -26.7,-2.4 -0.8,-0.4 -2.5,-0.7 -2.7,-0.3 -3.2,5 -8.2,2.6 -12.3,2.7 -22.5,0.2 -45.1,-0.1 -67.6,0.2 -6.6,0.1 -13.1,-2.3 -19.8,-0.7 -2.6,0.6 -4,-1.5 -3.5,-4.1 1.7,-9.3 3.4,-18.5 5.2,-27.7 0.5,-2.8 2.5,-4.1 5.2,-3.2 9.9,3.4 20.1,1.3 30.1,2.8 0.3,0.1 0.6,0.1 1,0.2 -0.3,-0.1 -0.7,-0.1 -1,-0.2 z m 47.1,11.9 c -9.9,-5.5 -34.9,-11 -41,-8.8 14.6,2.5 27.1,8.1 41,8.8 z m 11.4,1.1 c -1.7,-1.1 -3.4,-2 -5.9,-0.6 2.2,1.1 4,1.1 5.9,0.6 z"
   class="st6" />
				<path
   style="fill:#770606"
   inkscape:connector-curvature="0"
   id="path1439"
   d="m 867,387.8 c -1,10.3 -1.5,10.6 -11.8,10.8 -24.5,0.4 -49,-0.5 -73.5,0.5 -8.2,0.3 -16.1,-3.1 -24.1,-5.1 -4.9,-1.3 -9.8,-2.7 -14.7,-4.1 -2.7,-0.8 -4.6,-2.5 -3.9,-5.6 0.9,-3.6 3.6,-2.9 6.2,-2.2 3.8,1 7.6,2 11.4,2.8 1.4,0.3 3.6,1.2 4,-0.9 0.4,-2.3 -1.6,-2.7 -3.6,-2.4 -4.2,0.6 -8.1,-1 -12.1,-1.8 -3.5,-0.8 -4.9,-2.8 -4.3,-6.4 2.1,-11.2 4.2,-22.3 6.3,-33.5 0.6,-3 2.4,-5 5.4,-3.7 11,5 23.4,4.6 34.6,9 4.2,1.6 5.8,3.6 4.9,8.3 -1.3,6.8 -0.5,7.5 6.5,7.5 16.7,0.1 33.3,0.2 50,-0.1 6.9,-0.1 13.6,1 20.3,2.1 3.3,0.5 3,2.5 2.6,4.7 -1,6 -2.1,12 -3.2,17.9 -0.8,0 -1.5,0 -2.3,0 -3.5,-4.1 -17.9,-7.6 -24.7,-5.3 8.8,2.4 17.1,2.3 24.6,5.4 0.5,0.6 1,1.4 1.4,2.1 z m -11.3,2.7 c -2,-2.1 -4.4,-0.3 -6.6,-1 -2.1,-0.6 -4.2,-0.9 -6.3,-1.3 7.2,4.2 9.3,4.5 12.9,2.3 z m -50.3,-22.9 c -4.2,-2.2 -8.7,-4.2 -13.8,-4.2 4,3 8.7,4 13.8,4.2 z"
   class="st6" />
				<path
   style="fill:#770606"
   inkscape:connector-curvature="0"
   id="path1441"
   d="m 764.4,324.5 c -2.6,-0.7 -5.3,-1.4 -7.9,-2.2 -1.6,-0.5 -3.9,-1.1 -3.3,-3.3 0.5,-2.2 2.6,-0.8 4,-0.8 0.7,0 1.5,-0.1 2.2,-0.2 -0.1,-0.6 0,-1.1 -0.3,-1.3 -2.1,-1.8 -6.6,-1.1 -6.6,-4.9 0.1,-5.2 0.7,-10.6 3.3,-15.3 0.7,-1.3 2.3,-1.3 3.7,-1.3 42.1,-0.1 84.1,-0.3 126.2,-0.3 2.5,0 5.8,-0.2 6.3,2.9 0.6,3.8 0.7,8 -3.9,10 -0.4,-0.1 -0.7,-0.9 -1.1,-0.1 0.3,0.1 0.6,0.2 1,0.4 1.3,1.3 2.3,2.7 2,4.7 -1,6.3 -3.1,12.3 -3.6,18.6 -0.2,2.7 -2.8,3.7 -5.3,3.6 -11.7,-0.2 -23.5,1.4 -35.2,-1.4 -1.1,-0.3 -2.4,-0.7 -3.5,-0.4 -13.3,3.7 -26.9,1.3 -40.4,1.9 -3.3,0.2 -6.3,0.5 -7.5,4.2 -1,3.1 -3.2,3.6 -6.1,2.9 -11.8,-2.9 -23.8,-4.7 -35.5,-8.1 -2.6,-0.8 -4.3,-1.8 -3.9,-4.8 0.4,-2.9 1.8,-4.7 5,-4.6 3.6,0 7,0.9 10.4,1.8 11.8,5.6 24.8,3.3 36.9,7 0.1,-0.5 0.2,-0.9 0.3,-1.4 -10,-2.6 -20,-5.1 -30,-7.7 0,0 0.4,-0.3 0.4,-0.3 l -0.4,0.2 c -2.4,0 -4.8,0.1 -7.2,0.2 z m 112,-4.7 c -6.2,-1.5 -12.4,-3 -18.6,-4.5 5.6,4 11.8,5.7 18.6,4.5 z m -41.5,13.4 c 0.7,-0.2 1.7,-0.4 1.2,-1.3 -0.4,-0.7 -1.5,-1 -2.4,-1.2 -0.3,-0.1 -1.1,0.7 -1,0.9 0.3,1 1.1,1.5 2.2,1.6 z"
   class="st6" />
			</g>
			<path
   style="fill:#770606"
   inkscape:connector-curvature="0"
   id="path1445"
   d="m 826.6,438.6 c -0.3,-0.1 -0.6,-0.3 -0.9,-0.4 -6.4,-4.4 -14,-4.7 -21.2,-6.3 -5.1,-1.2 -10.4,-1.8 -14.3,-5.7 0.6,-0.8 1.6,-0.5 2.5,-0.5 23.3,0 46.7,-0.1 70,0 6.7,0 7.2,0.7 6.1,7.2 -2,13 -2,13 -14.6,9.4 -4.1,-1.2 -8.3,-2.3 -12.4,-3.6 -2.9,-0.9 -5.2,-2.2 -7,-5 -1.9,-3 -7.3,-5 -13.1,-5.4 2.1,3.9 10.3,2 8.6,9.2 0,0 0.1,-0.1 0.1,-0.1 -1.2,0.3 -2.5,0.7 -3.8,1.2 z"
   class="st6" />
		</g>
		<g
   id="g1453">
			<path
   style="fill:#770606"
   inkscape:connector-curvature="0"
   id="path1449"
   d="m 371.4,256.3 c 0,14 -11.1,25.2 -24.9,25.3 -13.5,0.1 -25.3,-11.7 -25.2,-25.1 0.1,-14.1 11,-25.1 25,-25.1 14,-0.1 25.1,11 25.1,24.9 z"
   class="st6" />
			<path
   style="fill:#770606"
   inkscape:connector-curvature="0"
   id="path1451"
   d="m 193.2,379.7 c -14,0 -25.2,-10.9 -25.3,-24.7 0,-13.8 11.2,-25.2 24.9,-25.2 13.9,0 25.4,11.3 25.3,24.9 0,14 -10.9,25 -24.9,25 z"
   class="st6" />
		</g>
		<g
   id="g1465">
			<path
   style="fill:#212121"
   inkscape:connector-curvature="0"
   id="path1455"
   d="m 305.5,310.2 c 1.2,0.3 3,1.5 2.7,1.8 -4.9,4.5 0.9,4.7 2.5,6.7 2.6,3.4 2.8,6.5 -2,8.1 0.1,0.3 0.1,0.5 0.1,0.7 0.8,1.8 5.9,2.2 3.1,4.6 -2.4,2.1 -6.2,-0.9 -9.4,-1.6 -16.2,-3.8 -31.9,-9.4 -48.3,-12.3 -5.3,-0.9 -10,-2.6 -12.2,-7.8 -3.1,-7.4 -10.3,-9.8 -15.9,-14 -3.1,-2.3 -6.8,-3.8 -10.4,-5.5 -3.4,-1.6 -4.6,-4 -3.5,-7.6 2.7,-8.8 5.4,-17.6 8,-26.5 1,-3.5 3.3,-3.9 6.4,-3 7.2,2.1 14.4,3.8 21.9,4.4 1.6,0.1 4.2,0.9 4.4,-1.4 0.3,-2.3 -2.4,-2.1 -4,-2.5 -6.9,-1.5 -14,0.7 -20.9,-2.1 -3.3,-1.4 -6,-1.9 -3.7,-6.3 0.5,-1 0.2,-2.3 0.4,-3.5 1.2,-6.9 3.4,-8.3 10.1,-6.5 6.2,1.7 12.4,3.6 18.7,5.2 2.9,0.7 6.1,1.3 10.2,-1.4 -10.3,-0.7 -18.8,-3.2 -27.2,-5.9 -3,-1 -8.1,-0.3 -7.4,-5.6 0.5,-4.6 1.4,-9.7 8.6,-9.7 -4.5,-1.7 -4.7,-4.2 -3.3,-7.9 3.3,-8.8 5.8,-17.8 12.1,-25.2 2,-2.3 3.5,-3 6.3,-2.8 4.8,0.3 9.3,1.3 13.6,3.2 3.2,1.5 6.5,2.6 10.5,1.4 -1.3,-2 -6.8,-0.6 -4.2,-5.8 0.8,-1.6 -3.1,-3.4 -5.9,-3.4 -0.4,0 -0.8,0.2 -1.1,0.5 -3.8,2.8 -7.5,1.3 -11,-0.4 -1.8,-0.9 -1.2,-2.8 -0.2,-4.1 2.8,-3.4 4.9,-8 10.7,-6.3 0.4,0.1 0.8,0.1 1.2,0.1 0.5,0 0.9,0 1.4,0 -0.3,-0.2 -0.6,-0.5 -0.8,-0.7 -2.9,-1.9 -2.8,-3.9 -0.2,-6 5.4,-4.5 11,-8.8 16.9,-12.7 2.6,-1.7 5.1,-1.5 7.9,-0.6 3.3,1.1 6.7,2.3 10.3,2.2 0,0 0.5,0.2 0.5,0.2 l -0.3,-0.3 c -1.3,-0.8 -2.7,-1.6 -4,-2.4 -1.6,-1 -4.6,-0.9 -4.5,-3 0.1,-2.7 3.2,-2.9 5.3,-3.7 4.1,-1.6 8.3,-1.7 12.4,-0.1 1.2,0.4 2.4,0.8 3.5,1.2 0.8,0.4 1.6,0.8 2.4,1.1 0.2,0 0.3,0 0.5,0 -0.1,-0.1 -0.2,-0.1 -0.4,-0.2 -0.8,-0.4 -1.5,-0.8 -2.3,-1.2 -1.1,-0.5 -2.3,-0.9 -3.4,-1.4 -0.6,-0.9 -2.1,-1.1 -2.3,-3.2 4.8,1.2 9.5,2.9 14.2,3.3 21.7,1.9 42.1,10.3 63.6,13 4.8,0.6 9.6,1.8 14,4.3 2.8,1.6 6,1.8 9.2,1.3 5.1,-0.8 10.7,0.1 14.2,2.6 6.3,4.7 14.8,5.7 19.4,13.5 4.2,7.2 9.7,13.8 13.5,21.3 0.5,1 1.3,2.2 0.7,3.3 -0.9,1.5 -2.4,0.8 -3.7,0.5 -4.9,-1 -9.8,-2.1 -15.7,-3.4 1.7,3.5 4,3.4 5.9,3.8 4.6,1 9.3,1.7 13.4,4.1 1.9,1.1 4.2,1.9 4.3,4.4 0.2,3.3 -3.5,1.3 -4.7,3 7.9,3.5 13.3,14.9 11.1,23.8 -0.4,1.8 -0.1,2.6 0.5,4.1 2.5,5.8 2,11.9 1.4,18 -0.2,2.3 -1.9,3.3 -4,3.7 -4,-1.7 -8,-2.9 -13.4,-2.9 4.6,3.1 8.9,3 13.2,3.2 0.7,0.9 1.4,1.9 2.2,2.8 1.6,1.9 1.4,4 0.5,6.1 -1,2.4 -3.2,2.8 -5.4,2.4 -16.2,-2.8 -32.5,-5.6 -48.7,-8.5 -2,-0.3 -4.2,-1.2 -4.3,-3.4 -0.3,-5.5 -0.3,-11 0,-16.4 0.1,-2.4 2.4,-2.6 4.5,-2.4 4,0.3 7.6,1.8 11.3,3.1 1.8,0.7 3.3,1.7 4.5,3.4 2,3 6.6,2 6.9,0.5 0.6,-4 3.8,-2.2 6.3,-3.6 -4.7,-2.2 -9.1,-1.8 -13.1,-2.9 -6.7,-1.3 -13.3,-2.6 -20.9,-4 3.6,-3.2 7,-0.7 9.9,-1.6 -0.2,-0.4 -0.3,-0.9 -0.5,-0.9 -8.5,-0.1 -12.4,-4.8 -16.1,-12.4 -12.8,-26.3 -42.2,-37.9 -67.8,-32.2 -5.2,1.2 -10,0.9 -14.9,-0.9 -6.5,-2.4 -13.1,-4.1 -20.1,-3.3 -0.2,0.3 -0.2,0.7 0,1 5.3,1.2 10.7,2.3 16,3.6 2,0.5 5,0.2 5.4,2.6 0.3,2.1 -2.7,2.4 -4.2,3.5 -3.7,2.8 -7.2,2.4 -11.9,1.1 -17.5,-4.6 -35.2,-8.1 -52.8,-12 -0.1,0.5 -0.3,1.1 -0.4,1.6 9.1,2.6 18.1,5.5 27.3,7.7 7.7,1.9 16,1.6 23.1,5.9 1.4,0.8 4.7,0.5 3.3,3.6 -1,2.2 -3.2,3.7 -5.8,3 -3.1,-0.9 -6,-0.8 -9.2,-0.2 0.6,0.7 0.7,1.1 1,1.3 1.8,1.3 5.4,0.9 5.5,3.7 0,3.1 -2.7,4.5 -5.8,4.6 -0.8,0 -1.8,0.5 -1.3,1.4 2.2,4.2 -1.4,6.6 -2.8,9.5 -4.6,9.3 -7.2,19 -7.4,29.4 -0.1,7 -0.2,7.1 -7.3,8.3 1.6,1.9 4,1.8 5.7,2.7 3.9,2 4.6,5.7 0.9,7.9 -3.2,2 -0.4,2.3 0.4,3 9.3,8.2 14.7,19.6 23.9,27.8 v 0 c -4.5,0.4 -9,-1.6 -13.6,-0.2 5,1.5 9.3,8.2 14.8,1.7 z m 141.7,-52 c 0.1,-0.5 0.2,-1 0.2,-1.5 -9.2,-2.1 -18.5,-4.1 -27.7,-6.2 -0.1,0.6 -0.2,1.2 -0.4,1.7 9,3.2 18.6,4 27.9,6 z M 270,265.3 c -6.4,-4.7 -12.9,-5.7 -17.3,-3.6 6.1,1.3 11.7,2.5 17.3,3.6 z m 14.3,-81.8 c 4.5,2.7 8.3,3 12.2,2.1 -3.6,-1.1 -7,-3.3 -12.2,-2.1 z m -35.6,21.7 c -2.9,-1.1 -4.7,-1.4 -6.7,0.3 2.2,1.3 4,1.2 6.7,-0.3 z m 68.1,-51 c 0,-0.4 0.2,-0.9 0.1,-1 -1.9,-1 -3.8,-1.7 -7.1,-1.5 2.9,1.9 4.8,2.5 7,2.5 z"
   class="st7" />
			<path
   style="fill:#212121"
   inkscape:connector-curvature="0"
   id="path1457"
   d="m 196,448 c 12.7,6.5 27,8.5 39.9,14.5 -0.4,2.2 -2.5,2.1 -4,2.6 C 155.7,490 81.1,438.9 71.4,364.6 70.2,355 69.9,345.5 71,335.8 c 0.6,-4.8 2.6,-6.9 7.5,-6.9 14.9,0.2 29.8,0.1 44.7,0 5,0 6.8,1.4 5.1,6.7 -4.1,12.7 -4.2,25.5 -0.3,38.2 0.4,1.4 1.7,3.2 0.1,4.4 -1.4,1.1 -2.9,-0.5 -4.3,-1.1 -1.6,-0.6 -2.9,-2.2 -4.9,-1.1 -0.1,1.8 1.4,2.5 2.5,2.9 7.7,2.6 12.3,8.4 17,14.7 24.2,32 73.4,32.2 98.1,0.6 7.5,-9.6 14.4,-19.7 16.9,-32 1.2,-5.8 6.2,-6.3 12.2,-2.2 4.8,3.3 9.5,4.4 14.8,4.2 5,-0.1 9.6,1.7 14.5,2.3 h -0.1 c 5.3,1.2 8.8,6.1 14.7,6.7 3.6,0.4 2.1,4 1.6,6.3 -0.7,3.1 -2.5,4.6 -6,3.9 -3.2,-0.7 -6.2,-3.2 -11.4,-1 3.7,1.2 6,2.1 8.4,2.7 6.6,1.6 7.1,2.2 4.5,8.7 -7.3,18.4 -18.3,34.1 -33.2,47.2 -1.9,1.7 -4.1,3.1 -5.9,4.9 -13.3,13.3 -28.5,13.5 -44.8,6.7 -8.5,-3.5 -17.1,-7.1 -26.7,-4.9 2.4,-6.3 -3,-2.6 -4.7,-3.6 v 0.1 c -0.5,-0.5 -0.9,-0.7 -1.3,0.1 -3.4,1.7 -7,-1 -11.7,0 4.9,3.1 9,2.6 13,1.5 2.1,0 3.3,1.2 4.7,2.2 z"
   class="st7" />
			<path
   style="fill:#212121"
   inkscape:connector-curvature="0"
   id="path1459"
   d="m 295,366.7 c -1.4,-2.8 -4.3,-3.2 -6.9,-3.9 -8.7,-2.3 -17.3,-4.7 -26,-6.7 -5.3,-1.2 -7.7,-3.9 -7.2,-9.4 0.3,-2.9 -0.1,-5.8 -0.1,-8.8 2.2,1.2 4.2,2.9 6.9,2.2 0.3,-0.1 0.7,-1.1 0.6,-1.3 -2.1,-2.6 -4.9,-1.3 -7.4,-1.2 -1.3,-3.4 -4.3,-7.4 -2.5,-10.2 2,-3.1 6.3,0.4 9.6,0.3 1.1,0 2.3,0.2 3.4,0.3 0.4,0.4 0.8,0.8 1.2,1.1 0.2,-0.2 0.4,-0.4 0.5,-0.7 -0.5,-0.3 -1,-0.5 -1.5,-0.8 -1.1,-2.2 -3.7,-1.9 -5.5,-3 3.8,-2.1 9.4,-1.9 17.3,2.3 5.9,3.1 12.2,2.5 18.2,3.8 6.2,1.3 10.8,6.5 18.3,6 -2.4,3 -1,4.9 -0.1,7.5 2.5,7.1 1.8,14.7 -0.2,21.9 -0.8,2.9 -3.5,2.7 -5.9,2.3 -4.2,-0.6 -8.4,-1.9 -12.7,-1.7 z"
   class="st7" />
			<path
   style="fill:#212121"
   inkscape:connector-curvature="0"
   id="path1461"
   d="m 425.6,158 c -36.3,-5.3 -71.4,-15.6 -108.7,-23.7 9.3,-2.7 17.2,-4.2 25.5,-2.6 22.3,4.3 44.2,10.1 66.1,15.8 7,1.9 12.1,5.9 17.1,10.5 z"
   class="st7" />
			<path
   style="fill:#212121"
   inkscape:connector-curvature="0"
   id="path1463"
   d="m 349.8,131.4 c 12.9,-2.4 37.8,3 46.3,9.5 -15.5,-2.8 -30.5,-8.5 -46.3,-9.5 z"
   class="st7" />
		</g>
	</g><g
   id="g1485">
		<polygon
   style="fill:none"
   id="polygon1469"
   points="596.8,212.8 1061.4,212.8 1052.6,287.5 587.9,287.5 "
   class="st8" />
		<path
   style="fill:#ffffff"
   inkscape:connector-curvature="0"
   id="path1471"
   d="m 604.5,281.8 -1.7,0.1 -1.2,-0.5 -2.8,0.4 -1.9,-0.1 -1.2,-0.4 -0.5,0.2 -1.5,-0.7 -0.9,0.1 0.1,-1.1 -0.5,-1.2 0.3,-0.7 0.6,-0.1 0.8,-0.4 -0.4,0.1 -0.8,-0.6 -0.4,-0.1 0.9,-0.4 -1,0.2 -0.1,-0.8 0.8,-0.5 0.4,-2.5 0.4,-1.2 1.5,-1.6 2.5,0.2 h 1.7 l 0.7,-0.6 1.7,0.7 0.8,-0.3 2.1,0.2 2.6,-0.6 0.4,0.2 -0.5,-0.1 1,-0.2 -0.3,0.8 h 0.1 l -0.1,2.1 0.1,3.4 -2,4.1 z m -10.8,-6.4 0.5,-0.1 -0.4,-0.3 v 0.8 l 0.4,-0.3 z m 45.3,6 -0.5,0.1 -2,-0.5 -1.8,0.5 -0.6,-0.2 -3.7,0.1 -1.7,-0.6 -1.8,-2.4 0.4,-1.3 -0.3,-1.2 -1.4,-0.5 -0.8,-2.6 -0.6,-1.4 -0.6,-2.7 0.7,-2.3 0.1,-1.1 -0.4,-1.3 -0.8,-2.7 -0.4,-2.1 -0.4,-2 -1,-0.9 -1.3,-3.2 0.5,-1.1 -0.5,-1.9 -1.1,-2.8 v -1.5 l -0.9,-1 -0.7,-1.9 -1.5,-1.8 0.3,-1.5 -0.2,-1.8 -1,1 -0.7,2.3 -0.4,0.6 v 2.3 l -0.2,1.4 -0.7,2.1 -0.7,2.1 -0.3,1.4 -0.8,2.1 0.3,0.8 v 1.1 l 0.1,0.4 -1,0.3 0.9,0.3 -0.9,1.1 -0.3,0.3 -0.2,2.2 -0.1,1.9 v 0.5 l 0.4,2.1 -0.4,1.2 -1.3,2.2 -0.4,0.7 V 268 l -0.1,0.3 -0.4,-0.3 0.4,-0.1 -1.2,-0.5 h -0.6 l -1.5,0.7 -0.3,-0.2 -1.7,-0.5 -0.4,-0.1 -0.3,-0.4 -0.7,0.5 -1.5,0.6 -3.2,0.4 -1.5,-1.2 0.4,-1.9 1.3,-2.2 0.1,-2.2 -0.1,-1.1 1,-1.6 -0.4,-1.9 1,-1.2 -0.4,-1.7 1,-1.9 0.2,-0.7 0.3,-1.9 0.9,-1.9 -0.8,-1.2 0.7,-3.1 1.1,-1.5 0.2,-1.1 -0.3,-1.7 0.7,-1.9 1.1,-1.9 0.8,-0.2 v 0.5 l 0.5,-0.3 -0.1,0.7 0.5,-0.4 1,-0.2 2.3,-0.9 1.5,0.5 1.4,0.2 1.8,-0.4 2.1,-0.2 2.2,0.1 2.7,-0.5 2.2,0.1 1.4,-1.1 -0.6,-0.8 -2.1,1.1 -1,-0.8 -0.6,0.4 -2.2,-0.3 -1.5,0.3 -1.5,-0.2 -1,-0.1 -1.9,0.2 -0.8,-0.7 h -2.9 l -0.6,0.2 -1.9,-0.1 -0.8,-0.5 0.9,-3.3 -0.4,-1.4 0.4,-1.5 1,-2 -0.1,-2.5 0.6,-2.6 1,-1.8 0.5,-1.3 0.7,-1.9 1.5,-0.2 0.8,0.4 3.7,0.2 2.1,-0.5 1.7,-0.2 1.9,0.5 -0.3,1.4 0.9,1.5 0.3,0.7 0.6,1.3 2,1.8 0.5,1.4 0.7,1.3 -0.8,1.6 1.7,1.5 0.8,0.4 -0.5,1.7 1.6,0.9 1.1,2.4 -0.7,1.2 1.4,1.6 0.5,1.8 -0.1,0.6 0.5,0.7 -0.3,1.6 v 0.5 l 0.4,-0.2 -0.1,-0.3 0.8,1.6 0.6,1.3 0.6,1.5 -0.7,1.2 0.1,0.4 0.9,1.8 0.6,0.9 1.1,2.1 -0.1,-1.1 1.2,-1.9 -0.2,-1.3 0.7,-1.1 0.6,-1.7 0.2,-3 0.6,-1.8 -0.7,-0.7 1.4,-2.3 0.6,-0.6 0.3,-2.1 0.5,-1.2 0.1,-1.5 0.1,-1.6 0.5,-2.1 h 1 l 1.1,0.3 0.3,-1.6 h -0.2 l -1,0.7 -0.8,-0.9 -0.4,-1 1,-1.6 -0.3,-1.7 1.6,-2.1 2.3,0.2 h 1.9 l 0.9,-1 3.1,0.3 0.2,0.3 3.2,-0.6 0.6,0.4 v 0.4 l 0.7,-0.8 -0.2,1.7 0.7,0.9 -0.9,0.6 0.2,-0.2 0.2,1.9 -0.7,0.7 V 222 l 1,1.2 -0.4,0.2 -0.6,-0.2 -1.3,0.2 -2.1,0.4 h -1.7 l -0.8,-0.5 -1.3,0.6 -2.5,-0.4 -0.9,1 0.3,-0.1 0.5,1 2.5,-0.9 0.2,0.8 2.3,-0.1 2.6,-1 0.5,0.5 1.7,0.2 0.2,-0.2 -1.2,0.8 0.3,0.5 0.3,0.2 -0.4,0.9 -0.5,1.8 -0.9,1.7 -1.8,-0.3 -1,0.7 -2.5,-0.4 v -0.2 l -1.3,0.3 -3.3,0.6 -2.4,-0.2 -0.7,0.3 -0.4,1.1 2,-0.3 2.9,0.1 1.1,-0.3 0.9,0.1 0.5,0.7 h 0.9 l 1.5,-0.9 1.9,0.5 2.2,-0.7 0.8,2.1 -1,2.8 -1,1.5 -0.7,2.4 -0.2,1.4 0.6,1.3 -0.8,1.8 v 2.8 l -1.2,1.6 0.1,1 -1,2.2 v -0.3 l -0.8,0.6 0.5,-0.7 1.3,0.2 0.3,1 -1.6,2.4 0.4,1.3 -1.2,2.5 -1.6,-0.7 -0.2,0.4 -2,-0.4 -1.4,0.8 -1.4,-0.6 -2.3,0.5 -0.8,-0.4 -1.2,1 -0.5,0.1 0.7,0.3 1.9,0.5 1.9,-0.1 0.7,0.3 3.9,-0.7 1.4,0.1 0.6,1.1 0.2,1.3 -0.9,2.9 -1.4,0.9 -2.7,-0.3 -1.3,0.5 -0.9,-0.6 -1.7,0.7 h -0.5 l -2.4,-0.6 -2.8,0.4 -1.1,0.1 v 1 l 1,0.9 1.9,-0.9 1.3,0.5 1.8,-0.4 2,-0.4 1.9,0.6 h 2.1 l 1.8,-1 0.5,1.3 -0.7,1.6 0.1,1.3 -0.2,1.2 -0.9,1.1 -2.4,0.1 -2,-0.2 -2.4,0.9 -0.8,-0.2 -2.9,-0.8 -0.7,0.6 -1.6,0.5 -1.2,-0.1 0.1,1.6 1,-0.2 1.4,0.2 2.6,-0.2 h 2.2 l 1.4,-0.6 0.6,0.4 2.6,-0.3 1.7,0.5 0.2,0.7 -0.8,1.9 -2,2 z m -38.9,-3 -0.7,-0.4 -1.1,0.1 -0.9,-0.6 h -1.2 l -1,0.6 0.2,-0.2 0.6,0.1 0.2,0.5 0.6,-0.5 v 0.6 l 1.5,-0.1 0.6,-0.4 z m -1.5,-5.6 0.8,-0.3 -0.2,-0.1 -0.3,-0.5 z m 0.6,-18.6 0.8,0.1 0.3,-0.9 -0.6,0.1 z m 1.1,18.5 h 0.3 l 0.2,0.6 0.4,-0.3 z m 0.8,-18.8 0.4,-0.7 -1.1,0.7 z m 0.1,4.7 0.3,-1 -0.6,0.1 v 0.8 z m -0.3,19.3 0.8,0.2 0.8,0.3 1,-0.1 -0.4,-0.7 -1.1,-0.4 z m 0.5,-22.8 0.3,0.2 H 601 Z m 1.1,12.5 -0.8,-0.1 V 267 Z m -0.2,-21.3 -0.3,0.4 h 0.2 l 0.9,-0.2 z m 1.4,2.5 -0.4,0.3 -0.9,0.2 0.1,0.4 0.1,-0.6 z m -0.1,-11.1 -0.6,-0.5 h 0.3 z m 0.8,8.2 0.2,-1 1.2,-0.9 -1.1,-0.4 -0.3,-0.8 -0.7,1 0.8,0.8 -1.1,0.8 -0.2,0.7 1.2,0.5 z m 0.2,2.3 -0.2,0.1 -0.3,-0.7 -0.3,0.3 z m -0.2,-8 -0.5,1 1.4,-0.2 0.4,-0.4 -1,0.1 z m 0.2,38.8 -0.5,1.2 h 1.1 z m 0.9,-36.3 -0.7,-0.2 1.2,0.6 0.1,-0.3 z m 1.1,-13.7 -0.2,-1.3 -1.3,-0.2 1,0.2 0.3,0.9 z m -0.1,41.6 -1,0.6 0.4,-0.9 0.4,-0.3 z m -0.9,-43.6 0.5,-0.2 0.2,-0.5 h 0.1 z m 0.2,30.6 0.8,-1.3 -0.7,-1 v 1.3 l 0.4,1.1 z m 0.6,-31.2 0.9,-0.2 -0.8,-0.3 -0.2,-0.3 -0.2,0.5 0.3,-0.5 z m 0.4,26.1 0.8,-0.1 -0.1,-0.4 0.1,0.6 z m 3.1,-23.1 0.7,-0.9 -1.1,-0.6 -1.2,0.7 1.4,0.1 -0.3,0.9 -1.3,-0.8 -0.8,0.3 v 0.5 l 1.6,0.6 0.3,-0.3 z m -2.1,-0.2 1.1,-0.2 -1,-0.1 z m 3.2,0.8 0.2,-1 -1.3,-0.2 z m -0.5,-13.9 -0.4,0.9 0.4,-0.3 h -0.4 z m 2.1,0.5 -1.5,0.2 0.7,1.1 z m -0.8,-0.6 0.2,0.3 1.1,-0.2 z m 0.9,2.9 -0.3,0.6 0.1,0.3 0.7,-0.9 z m 0.9,9.5 0.4,0.1 -0.6,-0.4 -0.3,1.3 z m 5.6,-1.7 0.2,-1.3 -2,1.1 z m -0.1,-1.7 h 0.2 l -0.3,0.6 v -1 z m 4.1,16.7 0.6,-0.3 -1.3,-0.2 0.2,0.3 z m 0.3,-18.8 -0.2,0.4 -0.7,-0.2 z m 11.7,37.6 1,-0.1 h -1 l -0.3,-0.6 -1.4,-0.1 -1.6,0.5 h -1.4 l -0.3,-0.8 -1.4,0.2 -0.6,0.9 -1.3,0.9 2.1,0.1 1.8,-0.3 z m 3.8,-7.2 -0.1,-1 -0.8,0.5 v 0.8 z m -0.3,-14 0.5,1.2 0.4,-0.8 0.6,0.8 3.2,-0.7 1.1,-0.4 0.4,0.5 -0.2,-0.7 -0.5,-0.2 -2.1,-1 -1.9,-0.1 -0.9,1.2 z m 3.5,-9.8 h -1 l 0.8,-0.3 0.5,0.1 V 229 Z m 1.9,-12.7 -1.1,-0.2 -0.4,-1.3 0.3,-1.3 0.5,-1.8 0.3,-0.9 1.3,-0.2 0.8,0.2 2,-0.9 1.1,0.7 0.5,-0.2 2.1,-0.4 1.7,0.3 1.1,0.2 1.7,-0.9 0.1,0.8 2.1,-0.4 0.1,1.9 -0.9,2 -0.4,0.9 v 0.9 l -1.2,0.8 -0.4,-0.3 -0.1,-0.3 0.2,-0.2 H 654 l -1.1,-0.5 -2.6,0.5 -1.6,-0.1 -2.7,0.3 z m 1.8,22 -0.7,0.3 1.2,0.3 -0.1,-0.6 z m 1.5,-0.3 1.5,0.2 1.4,0.2 0.6,-1.1 1.6,-0.6 -2.1,0.2 -2.6,0.2 z"
   class="st4" />
		<path
   style="fill:#ffffff"
   inkscape:connector-curvature="0"
   id="path1473"
   d="m 719.6,262.5 -1.2,1.3 -1.5,2.4 -1.2,1.7 -0.6,1.9 -2.2,1.7 -1.8,0.5 -1.3,1.6 -1,1 -2.1,0.7 -2.7,-0.5 -2.8,1 -1.2,-0.2 -1.2,0.3 -1.8,0.7 -1.9,-0.5 -0.5,-0.3 -2.1,0.7 -0.8,0.9 2.4,0.3 4,-0.4 0.5,-0.1 1.3,0.6 1.9,-0.7 2.5,0.3 1.5,0.3 -1.1,0.4 -2.5,1.6 -1.3,1.1 -3.6,1 -2.9,1 -1.6,0.8 -2.8,0.8 -3.6,0.1 -1.8,-0.9 -3.2,-0.3 -1.2,-0.6 -2.5,-1.1 -0.8,-0.3 -2.4,-0.2 -0.9,-0.5 -1.3,-0.9 -1.3,-0.1 -1.8,-2.3 -1.5,-1.1 -2.3,-0.6 -1.2,-2 -0.4,-1.2 -0.2,-1.2 0.3,0.7 2.2,-0.3 2.4,-0.3 2.4,0.2 2.2,-0.5 2.8,0.2 1.2,-1.8 -1.3,0.8 -1.3,0.2 -1.8,-0.5 -0.9,0.4 -0.5,-1 -2.8,1.1 -0.9,-0.6 -0.9,0.1 -2.1,-0.4 0.6,-0.3 0.2,0.3 -1,-0.1 -0.2,-0.3 -1.3,0.5 -0.6,-0.1 -0.8,-1 -0.3,-2 -0.4,-1.6 -0.2,-1.2 0.1,-0.4 h 0.3 l -0.6,0.3 -0.3,-0.9 -0.8,-1.2 1,-1.7 -0.5,-1.3 -0.1,-1 -0.1,-1 -0.3,-2 0.5,0.5 -0.6,-0.6 v -1.3 l 1.3,-0.3 -0.5,-0.6 -0.8,-0.2 1.7,-2.4 -0.2,-1.6 1,-2 1.5,-2.7 1.2,-3.3 0.3,-2.5 0.6,-1.2 1.2,-0.4 2,0.1 0.8,-0.5 1.2,0.5 1.1,0.1 h 2.3 2.9 l 3.3,-0.3 1.3,-0.6 -0.4,1.4 -1.5,1.9 -1.2,2.1 -1.3,2.3 0.3,1.1 -1.4,1.7 -0.5,1.2 -0.8,1.3 0.4,1.2 -0.2,0.9 0.2,0.2 -0.8,0.3 -0.3,0.3 0.4,1.1 -0.3,1.4 -0.9,0.5 0.5,-0.1 0.9,-0.7 -0.3,0.1 0.3,0.2 0.4,0.8 -1.5,0.7 0.5,0.9 0.9,0.2 -0.6,0.7 0.4,0.5 0.4,0.4 0.6,0.6 0.5,1.3 -0.1,0.6 1.1,1.9 0.8,0.8 0.7,0.6 0.9,0.9 0.8,1.5 1.5,-0.1 0.4,0.4 1.9,0.7 0.5,0.8 1.7,0.4 2.3,-0.1 1.1,0.6 2.3,-0.2 1.3,-0.6 1.7,-0.6 3.2,-1.3 1.2,-0.7 0.8,-1 0.6,-0.6 1.3,-1.4 2.2,0.5 2.9,-1.1 0.9,-0.1 0.5,0.4 2,0.4 3.1,-0.6 1,0.2 1.8,-0.7 0.3,0.5 2.3,-0.2 z m -55.1,-10.1 -1,0.3 0.7,-0.3 -1,-0.1 z m -0.7,16.5 -0.5,-0.5 0.3,0.1 -0.3,0.5 z m 0.1,-12.1 0.5,-1.1 -0.4,0.5 0.2,0.3 -0.2,-0.5 z m 2.7,8.6 -0.2,-0.3 -1.5,-1.1 -0.8,0.4 0.7,0.8 h 0.5 l 0.3,0.3 z m -2.2,-11.2 1,-0.8 -0.3,0.5 z m 0.4,-2.1 h -0.4 l 0.9,0.2 z m 1.6,21.7 0.6,-0.1 -1,-0.2 -0.7,-0.1 0.1,0.2 0.5,-0.3 z m 0,-27.6 0.1,-0.5 -0.4,0.3 -0.4,-0.2 z m 0.5,2 -0.3,-0.5 -0.6,0.6 -0.1,0.1 h 0.5 z m -0.6,16.1 0.3,-0.2 -0.5,-0.4 0.5,0.4 z m 0.7,-26.3 -0.4,-0.5 0.2,-0.2 z m 0.3,9.7 -0.4,-0.8 v 0.4 h 0.8 z m 0.9,-4.7 -0.9,-0.2 -0.2,0.3 0.2,1.3 -0.1,0.4 0.7,0.3 -0.8,1 1.4,0.2 -0.5,-1.2 0.6,-1.5 z m 0.8,-12.2 1.1,-0.7 -1,-1.2 0.2,-0.1 1.6,-2 1.9,-2.4 0.4,-1.1 1.7,-1.7 0.2,-2.1 2,-1 0.8,-1.4 1.5,-0.4 1.4,-0.9 1.7,-0.9 0.6,-0.5 2.2,-1.6 2.1,-0.1 1.2,-0.9 3,-1.3 0.6,-0.1 2,-0.5 1.2,-0.3 3.9,-0.5 1.7,-0.5 2.4,0.9 1.4,-0.3 1.6,0.6 2.1,0.3 1.3,0.7 2.2,1.6 0.4,0.4 2.1,0.3 1.9,1.6 v 1.5 l 1.8,0.7 1.1,0.7 -1,0.2 -1.2,0.7 -1.8,-0.5 -1.7,0.1 h -1 -3 l -1.9,-0.1 h -2.5 l -2.3,0.2 -1.7,0.5 -0.1,0.4 0.4,0.7 0.8,-0.3 1.4,0.4 1.7,-0.8 h 0.5 l 2,0.1 1.1,-0.8 2.9,0.7 1.5,-0.3 1.8,-0.3 1.8,-0.4 1.7,0.7 1.3,0.6 2.3,1.6 1.3,1.8 -1.5,1.8 -1,0.2 -2.7,0.2 -1.4,0.4 h -1.5 l -0.9,-0.3 h -2.1 l -1.3,0.1 -1.7,-0.2 -1.1,0.2 -2.3,0.3 -0.9,0.8 0.9,0.5 0.5,0.1 0.7,0.2 1.6,-0.1 2,-0.3 2,0.2 1.6,-0.8 1.9,0.2 2.9,-0.5 1.5,0.2 h 1.9 l 2.4,1.1 -0.1,1.4 0.4,0.7 v 0.7 l -0.7,0.5 0.1,0.7 0.6,1.1 0.9,1.7 0.1,1.3 v 0.6 l 0.7,2.5 -0.5,2.2 -0.3,0.8 -0.3,2.1 -1,2.8 0.2,1 -0.8,3.5 -0.1,1.8 -0.7,0.2 0.1,1.4 -1,2.5 -1.2,3.2 -1.7,0.3 -1,0.3 -0.8,-1.1 -0.7,0.2 0.5,0.7 -0.4,-0.5 0.5,0.9 -1.5,-0.4 -0.9,0.4 -1.5,-0.2 -3.3,0.4 -2,0.3 -1,0.4 h -0.6 l -2.4,-0.7 -0.3,-0.2 0.4,0.2 1.8,-1.8 0.6,-1.9 0.8,-2.2 0.9,-1.3 1.4,-1.3 0.5,-2.1 0.4,-3 -0.4,-1.3 v -1.3 l 1.3,-0.4 -1,-1.7 0.7,-0.6 -0.7,-0.9 0.6,-1 H 711 l 1.2,-0.3 0.3,-0.4 -0.4,0.2 -0.9,-0.1 -0.8,-0.6 0.6,-0.3 -0.8,-0.5 0.6,-0.1 -0.5,-0.1 -0.1,-1.1 -0.1,-2 1.1,-0.4 1,-0.1 3.1,-0.5 0.6,0.2 h 1.6 l 2.1,-0.2 2.2,-1.1 -0.2,-0.3 -1.5,-0.5 -4.1,0.7 -0.3,-0.4 -1.4,0.7 -2.8,-0.5 -2.1,0.4 -1.8,-1 -1.5,-1.2 -2.3,-1.2 -1.7,-1.1 -1,-1.1 -1,-0.3 -0.5,0.5 2.2,-0.4 1.6,-0.3 1.1,-1 -1.6,0.8 0.6,-0.1 -1.4,-0.6 -1.4,-0.4 -0.4,0.2 -1.8,-0.1 -0.8,0.5 -1.4,-0.1 -0.1,1 -1.1,0.1 h -0.3 -1.2 v -1 l 0.6,-0.2 -1.8,0.2 -4.3,0.3 -0.4,-0.2 -1.1,1.6 1.2,0.1 1.5,-0.5 1.4,1 0.2,-0.8 -0.3,1.1 -0.7,0.2 -1.6,0.3 -0.9,1 -1,0.2 -1.2,0.6 -2.2,1.5 -0.6,1.9 -0.8,0.2 -0.7,-0.8 -0.8,0.3 -1.5,0.2 h -1.9 l -0.7,-0.7 -2.1,0.1 -0.8,0.1 -2.5,-0.4 -1.5,0.1 -1.1,0.6 -0.6,-0.9 1.3,-2.1 z m -1.4,10.1 0.1,0.6 -0.3,-0.2 1,-0.5 -0.3,-0.4 z m 1.7,1.2 -1.2,1 1.3,-0.2 -0.6,-0.4 z m 0.1,24.1 0.3,-0.5 -1.3,0.3 v -0.2 h 0.5 z m -0.4,-10.8 1.2,-1 -0.7,-0.6 -0.7,1.5 -0.2,0.6 z m 0.4,11.3 0.5,-0.2 -1.1,0.7 1.1,0.5 -0.5,-0.2 z m -0.3,-1.3 0.3,-0.3 0.8,-0.4 h 0.5 z m 1.6,-14.8 -1.3,0.5 1.3,0.1 V 251 l -1,-0.3 z m 0.3,-19.5 -0.5,0.7 0.4,-0.6 1.1,0.6 V 231 l 0.9,-0.7 -0.4,0.2 0.5,1 1.2,-0.9 -0.9,-0.8 -2.1,-0.2 0.6,0.3 v 0.8 l -1.2,-0.1 z m 0.5,-1.2 0.2,0.6 0.3,-0.4 z m 2.4,30.3 0.2,-0.8 0.1,0.2 -1,0.5 z m 1.3,-38.9 -0.2,0.8 h 0.5 -0.2 l 0.2,-0.5 z m 0.3,8.8 h 0.3 l 0.4,0.4 -0.5,-0.6 z m 4.8,-2.3 0.5,0.5 0.7,-0.6 -1.2,-0.2 z m 0.6,-1.2 0.6,1 -0.7,-0.3 -0.2,-0.6 z m 3.2,-1.6 0.6,0.2 -0.3,0.3 z m 2.3,-0.4 -0.3,-0.6 0.4,-0.9 -0.6,0.3 0.4,0.4 v -0.6 l -1.4,0.5 1.1,0.7 0.2,-0.3 z m -0.4,-5.1 0.6,1.1 -0.8,-0.9 z m 1.4,-0.6 -0.9,1.1 0.4,0.1 -0.2,-0.8 z m -0.7,2 0.3,0.5 -0.5,-0.5 0.5,-0.7 z m 1.1,-0.5 -0.3,0.6 0.2,0.3 1,-0.6 z m 0.4,-2.1 v -0.2 l 0.6,-0.6 -0.7,0.1 z m 1.1,1.2 -0.5,0.4 1,-0.5 0.4,-0.2 z m 2.1,-2.5 0.2,0.2 1.2,-0.1 -0.2,-0.7 z m 1.9,-0.2 0.5,0.2 0.7,-0.2 -1,-0.4 0.9,0.7 -0.3,-0.9 z m 20.5,51.5 -0.1,-0.9 -1.7,0.5 -3,0.1 -1.2,-0.3 -0.4,0.1 -3.2,0.8 -1.7,-0.7 -1.4,0.5 -1.7,-0.2 -2.7,0.7 -2.4,-0.4 -0.8,1.1 h -0.1 l 1.5,0.3 2.8,-0.3 1.6,0.1 h 2.8 l 1.6,0.4 1.2,-0.4 2.2,-0.3 1.9,-0.2 2.2,-0.4 1,0.6 z m -0.8,-13.8 -1.6,-0.7 -1.3,0.5 -1,-0.2 0.8,0.1 1.2,0.5 z m 3.6,5.5 0.3,-0.9 -0.1,0.7 0.4,0.1 z m 2.5,-7.6 -0.3,0.4 -1.3,0.2 -0.7,0.7 1.7,0.2 h 1.4 l 0.9,-1.1 -1.3,-1 z m -1.1,4 -0.9,0.3 1,-0.1 h -0.7 z m -0.4,5.4 0.4,0.5 0.9,-0.3 0.5,-0.6 z m 0.1,-4.3 0.7,0.3 -0.5,-0.3 z m 3.4,-3.6 -1.1,0.5 -0.6,0.1 1.2,0.2 z m -1,5.7 0.7,-0.3 0.4,-1.4 -0.6,0.1 v 0.6 l -0.1,0.9 z m 1.4,-2.2 0.1,-0.6 -0.4,0.4 0.1,-0.1 z m 1.3,-3.4 -0.6,0.3 -0.6,0.6 0.5,0.1 z m -0.1,-2.6 0.2,-0.6 -0.2,0.6 h -0.5 z m 0.3,-13 0.8,0.4 h 0.3 l -0.6,-0.9 0.9,-0.3 z m 1.4,1.1 0.6,-0.1 -0.1,-0.9 -0.6,1.1 z"
   class="st4" />
		<path
   style="fill:#ffffff"
   inkscape:connector-curvature="0"
   id="path1475"
   d="m 772.4,278.3 -3,1.1 -2.5,1.3 -1.1,-0.5 -1.7,0.6 -1.5,-0.4 -2.4,1.2 -2.4,-0.7 -2.6,0.9 -1.7,0.5 -1.1,-0.3 0.2,-2.3 -1.1,-3.6 -0.4,-2.8 0.2,-1.7 -0.6,-0.2 -0.9,-0.1 0.8,0.6 0.5,-2.1 -1.1,-1 -0.4,-1.3 1,-0.4 -0.9,0.1 -0.6,-0.1 -0.3,-2.4 -0.9,-2.5 0.4,-1.3 0.2,-1.8 -0.1,-1.4 0.1,-3.4 -0.2,-0.6 -0.4,-2.3 -0.1,-1 -0.5,-1.3 -0.2,-0.7 -0.3,-1.4 -0.8,-2.3 0.6,-2.9 0.3,-1.4 -0.5,-1.8 -1.4,-0.9 0.4,-1 -1,-1.8 v -1.3 l -0.1,0.7 0.4,-0.4 -0.7,-0.2 2,0.4 1.6,-0.4 2.5,-0.2 1.7,-0.3 2.2,0.2 1.9,-0.4 1.6,-1 -0.2,0.1 -2.6,-0.5 -0.1,0.3 h -0.5 l -1.5,-0.5 -2,0.3 -1.1,-0.7 -1.3,0.5 -1.6,-0.3 -1.3,0.4 -1.2,-1.3 0.1,-2.3 -1.3,-2.2 0.2,-1.9 0.7,-1.5 -1.3,-1.5 -0.9,-1.9 -0.2,-2.6 0.3,-2.3 2.8,-1.4 1.7,1 0.8,0.1 0.8,-0.3 h 0.4 l 1.7,-0.6 2.5,0.1 2.1,0.7 2,0.5 1.9,1.2 -0.8,2.8 v 1.9 l -0.6,1.7 1.2,1.9 -0.2,1.1 0.7,1.8 -0.5,0.8 1.2,1.9 0.1,1.7 -0.1,1.4 0.4,0.6 0.1,2.9 1.8,1 0.2,1.6 -0.3,1.3 1,0.8 -0.8,1.8 0.2,0.3 -0.3,1.8 0.5,0.3 1.3,0.7 -0.3,1 -0.8,0.7 0.5,1 0.1,0.5 0.7,0.8 -0.3,1.3 0.7,1.6 -0.6,0.7 1.1,0.9 -0.1,2.3 1.4,1.2 0.4,1.5 -1.1,-0.1 0.3,0.3 -1.2,-0.4 -2.1,0.9 0.3,1.2 1.3,-0.6 0.7,0.5 1,-0.2 1,1.5 -0.6,1.1 1.2,0.2 2.4,-2.2 -0.2,-0.5 1.5,-0.5 -0.2,-0.5 -0.1,-0.4 v -1.4 l 0.6,-1.7 1.9,-1.8 0.9,-2.5 0.7,-1.4 1.2,-1.5 -0.3,-1.2 0.9,-1.5 1.4,-3.3 1.7,-3 1.2,-1.2 0.5,-2.2 0.4,-1.2 2,-2.6 2.3,-1.4 3.3,-0.1 1.2,0.4 1,-0.5 h 1.7 l 1.6,-0.2 0.7,-1.4 -2.5,0.1 -2.6,0.1 h -1 -2.3 l -0.8,0.2 -0.7,-1.4 0.5,-0.3 1.2,-2 0.5,-1 2,-1 1.7,-0.1 2,-0.6 2,0.4 1.3,-0.4 1.3,-0.5 2.2,0.8 0.9,-0.3 1.9,-1 0.7,-0.2 1,-1 -2.1,0.7 -0.8,0.3 h -2.7 -1.5 l -0.7,0.2 -1.3,-0.1 -1.8,0.4 -2.8,-0.2 0.2,-0.7 0.9,-1.4 1.3,-1.9 0.4,-0.8 0.9,-1.5 1.9,-2 0.2,-1.5 3.5,-0.4 0.7,-0.7 3.8,0.5 h 0.9 l 0.9,-0.4 2.2,0.2 1,0.5 -1,-0.4 1.1,0.8 -0.9,0.1 h 0.8 l -0.3,0.2 -0.3,0.8 -2.6,-0.3 0.1,-0.2 -2.3,1.1 0.3,-0.4 1.3,1.2 2.4,-0.5 0.1,1.6 -1.3,0.7 0.4,0.2 -1,1.8 -0.5,1.5 -2.1,3.2 -1.1,1.4 -1.3,1.7 -0.5,0.8 -1.7,3.1 -0.6,0.6 -1.1,1 1.4,-1.1 -1.1,-0.4 -0.4,0.4 -0.7,1.3 0.1,2.9 -1,1.8 -1.1,1.5 -1.6,1.1 -1,1.1 -1,1.5 -1.7,2 -0.7,1.2 -0.2,2.8 -2,2.6 -1.3,0.6 -2.6,0.2 -0.8,-0.7 1.4,0.9 1.1,-0.2 1.4,0.1 -0.2,0.7 -1.5,2.4 -0.2,1.2 -2.3,1.9 -0.8,0.5 h -1.5 l -1.4,-0.4 -1.8,0.3 v -0.3 l -1.6,-0.2 0.8,-0.2 0.1,0.2 -0.7,-0.1 -0.2,-0.3 1,0.9 h -1.5 l -2,0.3 -0.4,-0.2 -1,1 0.5,0.5 2.2,-0.3 2.1,0.2 1.5,-0.6 1.9,0.5 2.3,-0.4 1.6,0.6 -0.9,0.7 -0.1,1.6 -0.8,1.5 -0.3,0.9 -1.5,1.1 -2.5,-0.2 -0.8,-0.6 -1,0.5 -1.6,-0.7 0.4,0.2 -1.9,0.6 -2.8,0.1 -1.6,-0.1 -1.5,1 -0.3,1.1 h 2.4 l 3.4,-0.8 1.2,-0.3 2.5,0.8 1.4,-0.6 0.9,0.1 0.6,0.1 -0.4,1 v 1.6 l -1.1,1.6 -0.5,1 -2,0.3 -0.9,0.1 -1.4,0.3 -1.9,0.9 -0.9,-0.5 -1.1,-0.7 -2,0.7 -0.5,0.7 0.3,1 h 0.5 1.3 l 3.8,-0.3 1.5,-0.1 0.5,-0.1 0.4,1.2 h -1 l -0.5,0.7 1.2,0.3 z m -29.4,-62.7 0.1,-0.8 -1.2,-0.5 0.8,0.8 z m 1.2,5.4 -0.7,0.2 -1,0.3 0.1,0.7 z m -1.1,5.8 1.2,0.2 -0.5,-0.3 z m 0.8,-2.2 0.5,-1.2 0.3,0.1 -0.8,-0.3 -0.3,0.6 z m 0.3,4 h 0.4 l -0.1,-0.6 z m 32,35.4 0.6,0.2 -0.6,0.1 0.9,-0.8 0.1,0.1 h -0.3 l -1,-0.5 z m 0.6,-13.8 h 0.5 l -0.4,0.9 0.4,-0.9 z m 0.3,5.4 1.4,-0.4 -0.8,0.3 0.1,0.3 z m 4.6,-17.2 1.6,-0.1 1.3,-0.4 1.9,-0.4 H 784 l -1.4,-0.5 z m 3.2,7.9 -0.1,0.5 0.6,0.3 -0.7,-0.6 z m 12.8,-21.5 0.2,0.1 -0.5,-0.1 0.3,-0.8 z m 0.2,4.4 0.1,0.2 1,-0.8 z m 2.3,-13.4 1.4,-1.1 H 800 l 0.2,0.3 h -0.7 l -1.3,0.1 0.7,0.2 z m 2.1,2.7 1.3,-0.9 -0.3,-0.1 h -1.9 z m 1.7,-3.3 -1,0.1 0.3,-0.1 -0.3,0.5 z m -0.2,0.6 -0.1,0.7 0.5,-0.4 H 804 l -0.8,0.3 z m 0.6,5.5 h -1.1 l 0.2,-0.2 h 0.7 z"
   class="st4" />
		<path
   style="fill:#ffffff"
   inkscape:connector-curvature="0"
   id="path1477"
   d="m 833.8,225.6 -1.1,1.7 0.5,1.5 -0.2,1.7 -0.5,2.1 -1.1,1.8 0.8,0.7 -0.2,1.7 -0.9,3.5 -0.6,3.2 -0.9,0.7 -0.9,1.5 -0.3,3.2 0.1,2.1 -1.2,1.2 0.2,3 -0.5,1.2 -1.5,2.1 0.6,2.3 -0.3,1.8 -1.5,3.1 v 0.9 l -0.5,1.6 -1.1,1.2 0.4,1.9 -0.6,2 -0.3,2.2 -0.4,1.5 -0.3,1.8 -0.7,1.5 -0.1,1 -1.7,1.4 -3.3,-0.2 -2.4,0.5 -1.6,-0.4 -1.7,-0.2 -2.2,0.7 -1.3,-0.7 -1.4,-0.4 -0.6,-2.1 0.7,-2 0.4,-3.1 1.3,-1.2 0.1,-1.6 0.8,-1.1 2.2,-0.2 1.9,-0.2 h 2.2 l 1.2,-0.2 2.4,0.1 3.4,-0.3 1.4,-1.6 -0.8,-0.1 -2.7,0.6 -0.4,0.4 -0.7,-0.7 -1.5,0.3 -2.8,0.6 -0.7,-0.8 -0.5,-0.1 -2.6,0.1 -1.4,-0.4 -0.4,-0.1 0.2,-0.4 -0.4,-0.1 -0.1,-2.9 1.4,-0.9 0.5,-1.6 -0.4,-1.8 1.1,-1.6 -0.2,-2.9 0.7,-1.8 1.5,-3.4 -0.1,-1.3 1,-2.3 -1,-1.1 0.7,-1.5 v -2.9 l 0.9,-2.2 0.4,-1.6 0.2,-1.6 0.6,-1.2 1,-0.7 h 1.6 l 1.8,-0.4 h 2.4 l 0.9,0.2 2.7,-0.4 2.9,-0.2 1.4,-0.8 -1.4,-0.9 -1.2,0.4 -0.9,0.2 -0.8,0.3 -0.9,0.1 -2.4,0.4 -1.3,-1.4 -1.7,0.1 -1.4,0.2 -1.6,-0.1 H 816 l -0.1,-1.4 0.6,-2.2 -0.5,-0.9 0.1,-1.5 0.9,-3.5 0.8,-1.8 -0.5,-1.4 1.5,-1.1 -0.4,-1.1 -0.3,-1.5 0.4,-1.9 1.3,-0.8 0.4,-0.9 1.5,1.2 0.1,-0.6 1.7,-0.5 2.3,-0.1 0.3,0.3 2.1,0.4 h 1.6 l 1.2,-0.9 1.7,0.6 2.8,-0.7 1.1,0.6 -0.2,1.3 0.3,1.2 -0.4,1.7 -0.9,2 -0.5,1.2 -1.1,1.8 0.7,1.8 -0.6,1 -1.6,0.5 0.9,1.1 z m -16.6,25.2 -0.7,-0.8 0.4,0.1 0.7,0.4 z M 817,231.1 v -1 l -0.4,0.6 z m 3,-1.9 -0.6,-0.7 0.3,-0.2 -0.8,-0.3 -0.9,1 -0.4,-0.1 0.9,0.9 1,0.3 -0.3,-0.4 z m -0.6,-5.3 0.8,-0.6 -0.6,1.3 1.6,-0.3 z m 0.3,0.7 0.5,0.8 0.5,0.2 -0.4,-0.4 z m 1.9,1.2 0.5,-0.3 -0.3,0.1 -1,0.7 z m -0.6,-0.5 0.1,-0.7 0.3,0.2 z m 0.6,-3.4 0.3,-0.3 z m 1.5,1.2 v 0.2 l -0.4,0.1 z m 1.1,18.4 -0.6,0.3 1,-0.5 -0.2,0.4 z m 1.6,6.1 -0.5,-0.4 v 0.2 l 0.1,-1.5 -0.3,0.5 0.4,0.1 z m 0.6,-27.2 -0.7,0.3 1,-0.5 -1,0.8 z m 0.7,17.7 0.1,0.3 -1,0.8 0.9,0.6 -0.9,-0.6 z m 0.7,-17.6 1.4,-0.5 -0.9,0.8 0.5,-0.9 0.4,0.5 z m 1.6,11.3 -1.5,-0.1 0.6,0.1 z"
   class="st4" />
		<path
   style="fill:#ffffff"
   inkscape:connector-curvature="0"
   id="path1479"
   d="m 912.4,265.4 -0.1,1.4 -1.1,1.3 -1.5,1.1 -1,1.6 -2.9,1.5 -0.8,0.9 -0.3,0.6 -2.5,-0.2 -2.4,0.5 -2.7,0.1 -2.1,0.5 -1.3,-0.2 -0.4,0.6 -2.4,-1.1 -0.9,-0.2 -1.5,0.6 0.1,0.2 -1.1,1.8 2.8,-0.3 3,-0.2 1.2,-0.5 2.1,0.8 0.4,-0.2 5,-0.4 0.2,0.6 -1.7,1.1 -1.7,1 -1.4,0.1 -0.7,0.5 -2.7,1.2 -1.9,0.7 -2.7,1.3 -1.6,0.2 h -1.2 l -1.8,-0.1 -1.8,0.4 -1.8,-0.7 -3.1,0.6 -1.2,-0.4 -1.2,0.2 -1.5,-0.6 -3.7,-0.6 -0.9,-0.6 -1,-0.9 -1,-1.1 -1.8,-1.7 -1.5,-0.7 0.1,-1.5 -0.5,-1.2 -2.5,-1.7 -0.4,-1.9 1.7,0.1 2.5,0.5 0.8,-0.4 3,-0.6 2.2,0.5 1.4,-2 -1.4,0.5 -1,0.3 -1.3,-0.4 h -1.3 l -0.5,-0.2 -2.4,0.7 -0.8,-1.3 -1.1,0.8 -1.3,-0.2 0.7,-0.8 0.1,-1.9 -0.3,-2.2 -0.4,-1.9 1.2,0.1 h 0.1 l -0.1,-0.7 -0.1,-0.2 2.7,-0.6 1.7,0.8 0.8,0.3 -0.6,1.3 -0.2,0.7 0.3,1.1 1.9,-1 1.3,-1.8 -1.5,-1.5 1,0.2 2.9,-0.4 1,-0.5 h 1.3 l 1.4,-0.6 1.3,1.6 -0.7,1.7 1.6,0.8 1.2,2.1 2.1,0.3 0.9,1.4 -0.4,-0.8 0.5,-0.3 1.2,1.1 1.6,0.7 0.4,0.4 1.2,1 h 1.5 1.5 l 2.9,-0.2 1.7,0.4 2.2,-0.5 1.9,0.1 1.1,0.1 h 2.5 l 1.4,-0.7 1.4,-0.4 1.9,0.2 1.6,-0.5 1.1,-0.8 -2.4,-0.3 -3.4,0.9 -1.5,-0.3 -2.7,0.8 -2,-0.4 -1.3,-0.2 -1.4,0.5 -0.5,-0.4 -2.7,0.3 0.6,-0.2 2.1,-1.7 1.1,-2.5 1.9,-1.7 1.5,0.5 2.7,-0.5 0.6,-0.3 h 1.1 l 2.7,-0.4 2,0.1 h 0.9 l 1.3,-0.5 1.8,0.3 1,-0.1 0.5,1.9 z m -46.7,8.5 -1.1,0.7 0.2,0.3 z m 0.1,-9.2 0.3,-1.2 0.2,1.1 -0.7,0.4 z m 1.5,2.6 0.7,0.2 h -0.9 l -0.5,0.2 -0.1,0.5 z m 1.6,-1.3 v 0 l -0.4,-0.1 -0.7,0.6 z m -0.1,-32.8 0.3,-0.2 -0.2,-0.3 1.3,-2.5 0.8,-2.6 1.8,-2.5 0.9,-1.5 2.4,-1.8 2.1,-1.9 0.8,-0.6 1.1,-0.6 2.8,-1.4 0.8,-0.8 1.9,-0.5 1.7,-1.2 0.7,-0.7 3.2,-1.2 2.6,-0.4 1.8,-0.4 1,0.4 1.1,-0.4 0.8,0.7 2,-0.2 3,0.4 1.4,0.1 0.8,1 1.4,0.3 2.6,1.6 -0.1,1 h -2.5 l -1.4,-0.1 v -0.5 l -1.2,0.3 -1.2,0.6 -2.3,0.1 h -1.7 l -1.6,0.4 0.4,-0.2 -1,0.1 -0.5,0.5 0.2,0.9 0.3,-0.7 0.9,0.1 -0.3,0.7 1.5,0.4 0.4,-0.2 -0.6,-0.4 0.6,0.1 1.5,-0.5 -1.3,0.6 1.3,-0.6 h 0.1 l -0.5,0.9 1.7,-0.2 V 219 l 1.3,-1.2 1.1,0.4 2.6,-0.8 2.4,0.8 1.2,-0.7 1,0.4 -0.2,0.9 1.6,-0.4 0.5,0.8 1.3,0.4 1,1.5 0.9,1.6 1.2,0.3 -1.3,0.7 -0.3,0.6 -3.1,0.2 -1.6,-0.1 -2.7,0.3 -1.5,-0.3 -0.7,0.4 h -2.4 l -2.2,-0.4 -0.6,0.7 -0.9,0.3 0.8,0.7 2,0.2 0.6,-0.1 1.6,-0.6 3,0.4 1.7,-0.5 0.6,0.4 2.5,-0.4 2.7,-0.5 1.9,-0.2 1.6,0.8 0.6,2.8 0.3,1.2 -0.4,1.7 -0.1,1.5 -0.4,0.9 -1.2,0.4 -1.3,1.1 -2.9,-0.2 0.3,-0.5 0.6,-0.9 -0.5,-0.8 -0.3,1.1 -1.2,1.2 -1.6,0.2 -1.8,-0.5 -0.4,0.3 -1.6,0.7 -3.6,-0.8 -2.1,-0.2 -0.1,-0.3 -0.8,-0.1 0.6,-1.5 -0.4,-0.2 1.4,-0.6 1.1,1.5 1.1,-0.4 1.8,0.4 0.5,-0.8 2.7,0.3 1.5,-0.8 1.7,0.3 1.3,0.2 2.7,-0.8 0.1,-0.6 -2.3,-0.2 -3,0.2 -2.3,-0.1 -2.6,-0.1 -1.7,0.3 -1.1,0.4 -1.9,-0.2 -2.1,-0.5 -1.1,0.2 -2.9,-1.1 -2.8,0.4 -0.7,0.3 -2.5,0.3 -0.4,0.6 -1.3,-1.1 -0.6,1.3 -0.9,1 -0.5,2.2 -0.6,0.7 1.1,0.8 0.6,0.8 1.4,1 1.3,0.5 0.1,0.4 0.3,0.4 2.6,0.4 2.1,1.2 2.7,-0.2 0.5,-0.4 1.7,0.9 1.9,1.6 h 1.5 l 0.6,0.8 h 1.6 l 0.9,-0.1 1.6,0.4 1.8,1.4 2.7,1.5 -0.2,0.9 v 0.5 l 1,1.4 0.6,1.1 -1.4,0.6 -0.3,-0.3 -0.7,0.7 1.1,0.4 2,1.5 -1.1,2.8 -0.8,1.8 -1.5,0.1 -1.7,0.5 -0.9,-0.4 -3,0.6 h -1.2 l -2.3,-0.1 0.1,0.1 -2,0.5 h -1.5 l -1.1,-0.6 -1.1,-0.6 0.2,0.1 -0.3,-1.1 -2.3,-1.4 -0.5,-0.3 -1.9,-0.6 -0.8,0.3 -1.8,-0.6 -2.8,-0.6 -1.2,-0.2 -1.7,-0.9 -1.5,-0.5 h -2.4 l -2.1,-1.7 -2.7,-1.7 -1,-0.7 -0.5,-0.2 -2,-2.2 -1.6,-1.9 -0.2,-0.6 v -1.2 l -1.3,-1 -0.3,-1.2 0.1,-3 v -1.5 l -0.1,-0.4 0.2,1.3 0.8,0.4 -0.1,-1.9 1.3,-0.4 1.5,-0.7 1.8,0.7 1.9,-0.4 3.2,-0.5 1.6,-1.4 -1.5,0.3 -1.6,0.6 -1.2,-0.7 -0.9,0.1 -1.2,-0.3 -2,0.1 H 872 l -1.2,-0.1 -0.3,0.3 -0.4,-1.4 0.7,0.5 z m 0.4,1.5 0.4,-0.1 -0.7,0.8 z m 8.2,3.9 0.3,-1.4 -1.3,-0.4 0.9,-0.3 -1.7,-0.7 -1.9,-0.3 1,0.9 -0.6,1.1 -0.8,0.6 -1.7,-0.2 -0.1,0.7 1.2,0.6 h 2 l 0.5,-1.3 0.8,-0.9 0.6,-0.3 -0.3,0.5 z m -4.6,41.3 0.9,-1.3 -0.2,-1.5 0.1,1.1 -1.1,1.9 z m 0.5,-42.4 1,-0.2 -0.1,-0.7 -1,-0.2 z m 0.7,34.1 v 0.8 l -0.2,-0.5 -0.1,-0.2 -0.3,-0.3 z m 3.9,-49.5 0.6,1 0.3,-1.2 0.3,0.4 z m 2.9,58 0.1,-1.6 -1.4,1.8 z m -0.7,-4 v 0.7 l -0.3,-0.3 0.9,-1.9 0.9,-2.1 0.5,-1.9 -1.2,0.3 0.6,0.1 -0.5,0.9 -1.3,1.9 z m 1.2,-26.2 h -1 l 0.2,0.3 0.1,0.7 z m 0,-14.7 -0.4,1.4 0.1,-0.5 1,-0.5 z m 2.2,-9.9 -0.4,1 0.6,0.4 1.9,0.2 0.5,0.1 h 2.1 l 1.4,-1 0.3,-1.1 -0.2,0.5 -1.8,0.3 -2.2,-0.1 -2.1,0.4 z m 6.8,4.2 -1,0.6 0.6,0.4 0.1,-0.6 z m 4.9,-4.2 -1.9,-0.5 -1.6,0.7 0.1,0.6 1.5,0.7 1.1,-0.7 0.7,0.2 0.3,-0.2 -0.7,0.8 0.2,-0.1 1.5,-1 0.9,0.8 1.9,-0.1 1.4,-1 -0.9,-0.6 h -1 l -0.2,-1.4 -0.9,1 0.1,0.2 -0.7,0.2 -0.6,-0.3 -0.8,0.9 z m 5.1,-7.9 -0.8,-1.6 -1.6,1.5 0.9,0.4 z m -2,7.5 0.8,0.7 -0.2,-0.5 -0.6,-0.6 z m 2.6,-10.9 -0.2,0.1 1.1,-0.5 -0.2,-0.2 z m 2.9,2.4 0.3,-0.3 0.2,-0.2 -0.5,-0.6 z m 0.6,36.2 1.8,0.2 0.3,0.1 1.6,0.3 -0.4,-0.9 -2.4,1 z m 2.7,-22.8 h 0.4 l 0.4,0.1 0.8,0.7 0.2,-1.7 0.4,-0.3 -1,0.6 z m 2.1,17.5 -1.3,1.5 h 1.5 l 0.5,0.2 -0.7,-0.4 -0.8,-0.8 z m 2.9,-20.5 -0.2,1.1 1.3,-0.6 z"
   class="st4" />
		<path
   style="fill:#ffffff"
   inkscape:connector-curvature="0"
   id="path1481"
   d="m 983.1,279.6 -1,0.5 -0.8,0.3 1.3,-0.4 -1.4,-0.4 -0.9,-0.2 1,0.8 -0.3,-0.3 -1.2,1 h -1 l -1.5,-0.3 -1,-0.8 -2.1,0.9 -2.1,0.4 -1.2,-0.3 -0.7,0.1 -1.5,0.3 -0.6,-0.4 -1.5,-2 -0.2,-2.2 0.1,-1.8 2.5,-0.3 1.7,0.6 1,-0.5 2.7,-0.4 0.7,-0.2 -0.5,-0.3 -0.6,-0.5 -0.6,1 -0.5,-1.2 -1.8,0.6 -1.2,0.3 -1,-0.5 -1.1,-0.9 -0.3,-2.5 -2.9,-0.4 -1.1,-0.4 -1.7,-0.4 -0.1,0.2 -4,0.6 -0.7,-0.2 -1.8,0.5 -1.5,-0.8 h -1.9 l -2.8,0.6 -1.5,-0.2 h -2 l -1.2,-0.2 -1.8,0.4 -1.8,0.6 -2.2,-0.5 -1.8,0.3 -3.5,1.1 -1.2,2.4 -0.8,1.4 -1.7,1.5 -0.4,1.7 -1.8,2.2 -1.9,1.7 -1.7,0.7 -1.2,-0.3 -2.9,-0.2 -3.3,1 -2.9,-0.2 0.5,-1.2 0.8,0.4 -1.2,0.1 h -0.4 l 1.1,-0.6 0.1,-1.2 0.1,-2.4 1.4,-0.8 0.4,-0.5 0.4,-1.8 0.9,-1.5 1.1,-2.7 1.8,-2.1 0.4,-1.3 0.9,-1.1 2.1,-2.5 1.2,-1 0.6,-1.1 -0.3,0.7 v 1.1 l 0.2,-0.7 0.1,-2.1 1.2,-1.8 1,-1.3 1.1,-2 1.1,-0.6 -0.1,-1.5 1.6,-1.9 2.1,-1.5 0.3,-1.4 0.8,-3 2.5,-3 1.3,-1.1 0.8,-0.3 2.7,0.2 1.6,-1 1.1,-0.7 1.2,1.4 0.2,0.3 2.2,-0.8 2,0.4 0.2,0.3 -0.7,0.6 -0.1,1.6 -1,1.7 -1.2,1.3 H 947 l -1.4,0.1 1.2,0.9 0.4,1.1 -1.9,2.2 -0.3,1.3 0.2,1.3 1.3,1.3 2.3,-0.1 1.2,-0.5 2.7,-0.4 1.6,-0.1 0.1,0.5 1.9,0.8 h 1.9 l 2.3,-0.5 0.7,-0.7 0.2,-0.2 1.2,-0.9 -0.6,-0.8 -0.6,-1.2 0.6,-1.1 -1.4,-0.4 1,-0.7 -0.4,-1.1 0.5,-1.3 -0.1,0.1 -0.7,-1.4 -0.3,-2.1 -0.7,-0.3 1.1,-1.6 -0.3,-0.9 -0.7,-0.5 -1,-0.1 0.4,-1.5 -0.4,-1.5 -1.3,-1.8 1,-1.7 0.6,-0.4 h 1.5 l 0.8,-0.2 2.8,-0.1 1.7,0.6 2.2,-1.4 0.7,0.1 -0.2,-0.8 -0.9,0.4 -1.7,-0.2 -2.8,0.8 -0.7,0.2 -1.9,0.1 -0.6,-0.4 -2.4,0.2 0.3,-0.6 h -1 l -2,0.4 -2.1,0.4 -0.9,0.7 -2.2,-0.9 -1.9,0.7 -1,-0.5 -1.6,-0.1 -1.5,1 -0.9,0.2 0.6,0.4 h 0.5 1.4 l 0.8,-0.3 1.6,0.8 3.4,-0.6 1.7,-0.2 1,-0.2 1.5,0.1 -1.5,1.8 -0.6,0.8 -1,2.9 -1.2,0.6 -2,0.6 -1.6,-0.4 -1.5,0.4 -0.3,-0.1 -1.2,-0.3 h -2.5 l -2.1,0.8 -0.9,-0.4 0.2,-1.4 0.2,-1.7 0.7,-1.2 1.7,-2.2 1,-0.4 -0.7,-0.6 0.7,-1 0.6,-1.7 -0.3,-1.4 1.1,-0.8 1.6,-1.5 0.1,-0.5 1.3,-0.2 2.5,0.1 1.1,-0.3 2.8,0.7 1.6,-0.6 1.6,-0.1 h 2.2 l -1.8,0.4 -2.3,-0.4 -1.3,-0.3 -1.7,0.1 -2.7,0.3 -1.6,-0.3 -1.1,-0.1 -0.6,-0.6 1.3,-0.8 1.4,-2.7 1.1,-1.3 1.6,-1.3 -0.7,-0.6 0.1,-0.1 -0.3,-0.6 1.8,-1.7 2.5,-0.4 1.5,-0.7 2.2,-0.9 1.9,0.2 0.5,0.1 3.3,-1 2.2,0.4 1.7,-1.3 1.7,0.5 1.6,0.2 0.1,2.2 1.4,3.1 v 0.5 2.1 l -0.6,2.1 h 1.4 l 0.6,0.3 0.4,0.4 v -0.5 l -0.9,0.7 -2,-0.1 -0.3,0.2 -1.1,-0.3 -0.2,1.4 1.2,-0.6 1.5,0.6 0.5,0.4 1.5,2.3 -0.3,1.7 1,1.4 -1.3,0.1 0.9,-0.3 0.4,0.8 -0.3,0.7 0.5,2 -0.9,1.8 1,1 -1.1,1.6 -1.1,0.2 -0.2,0.6 2.6,0.3 0.8,0.7 0.4,1.2 -1,1.7 1.3,1 0.3,1.2 -2,1.2 -0.8,-0.2 0.9,0.8 1.9,0.2 0.1,0.8 -0.4,2.8 0.4,2.6 -0.5,1.2 -0.4,2.1 2.3,0.1 v 1.6 l 0.3,2.2 h -0.2 l -0.3,0.1 0.9,1.2 0.8,2.6 0.1,1.9 -0.1,0.3 -2.1,-0.7 -1,0.5 -2,0.5 -1.7,-0.4 -0.2,-0.2 -2.2,-0.7 -0.2,0.4 -1.6,0.3 -0.7,1.1 h 0.6 l 2,0.3 2,0.5 1.4,-0.3 2.5,0.2 0.9,-0.2 2.2,-0.3 -0.4,0.9 1,1.4 -0.9,2.1 0.8,1.1 0.3,1.2 1.1,2.7 0.6,1.7 z m -64.1,-0.8 0.5,-0.5 -0.5,-0.6 -0.1,0.2 0.5,0.3 z m 1.5,0.7 h -0.2 l -0.6,-0.5 -0.2,0.2 z m -0.8,-2.7 v 0.5 l 1.9,-0.4 -0.9,-0.4 z m 5.8,-10.9 -0.2,-0.6 -1.5,0.3 z m -0.1,4.7 -0.3,-0.6 v 0.4 l -0.3,-0.1 z m 8.1,-0.7 1.2,-0.8 -1.1,-0.2 -1.4,-0.2 H 932 l -1.9,-0.5 -0.8,0.4 -0.8,0.2 -0.7,0.3 -0.9,0.3 -1.3,0.9 0.9,-0.4 1.9,0.2 1,-0.5 2.8,0.2 z m 28.4,-2.5 -0.3,-0.7 -0.8,-0.2 -1.9,1.3 -3.5,-0.4 -0.7,0.4 -1.6,-0.1 -0.3,0.1 -1.9,0.3 -2.6,-0.3 -1.7,0.3 -1.8,-0.1 -1,-0.1 -1.2,0.8 h -1.8 l -1.9,-0.5 -0.5,0.1 -2.6,0.1 -0.3,0.9 0.2,-0.2 0.7,0.6 1.3,0.3 1.4,0.1 1.7,-0.8 2.7,-0.3 h 1.8 l 0.8,0.4 1.8,-0.2 3.4,-0.5 0.9,-0.3 1.1,0.4 1.8,-0.5 2.2,0.2 1.7,-0.1 0.6,-0.5 z m -23.2,-18.5 3.2,-0.4 0.8,-0.3 -0.5,0.7 0.4,-1.4 -0.9,-0.3 -1.1,0.1 -1.1,-0.4 -1.9,1.2 -0.3,-0.3 -0.4,0.9 0.6,0.5 z m 5.3,-1.4 0.5,0.3 -0.5,-0.3 0.7,-0.3 z m 1.9,-8.5 -1,0.2 1,-0.7 0.3,0.2 z m 0.3,4.1 -0.1,0.8 0.1,0.9 0.9,-0.9 z m 1.5,-13.1 -0.5,-0.5 -0.7,0.5 0.1,0.1 0.1,0.4 -0.6,0.2 0.9,-0.4 0.7,1 z m -1.5,31.7 1.3,-0.6 0.7,0.8 2,-0.3 -1.2,-0.8 -2.4,0.4 z m 2.4,-26 0.1,0.4 v -0.4 l -1.2,0.7 1.2,-0.1 0.1,-0.6 z m 2,-6.9 V 228 l -1.2,0.7 z m 4.4,31.2 -0.5,0.3 0.6,0.5 -0.9,-0.2 2.2,-0.1 1.4,-0.3 -0.2,-0.5 0.1,-0.5 -0.5,0.3 h -1.5 l 0.4,0.5 -0.2,-0.7 -1.7,0.3 z m 3.5,-26.3 -0.1,0.6 0.5,-0.2 0.7,-0.5 -0.8,0.7 z m 2.1,32.7 0.6,-0.1 0.2,-0.4 -0.8,0.3 z m 5.8,-5.9 2.5,0.2 2.2,-0.6 1.4,0.4 0.2,-0.1 2.1,-0.3 0.8,0.2 1,-0.3 1,0.3 0.6,-1.1 -1.9,0.1 -0.5,-1 -1.4,0.3 -1.5,-0.4 -1.7,0.4 -0.5,0.1 -1.1,0.4 -1.8,0.4 -0.9,-0.9 -1.2,0.7 h -1.8 l -1.1,-0.1 -0.5,-0.1 -0.5,1.1 1.2,-0.3 z m -2,-35.9 1,-0.3 -0.3,-1.2 -1.1,0.5 -0.5,-0.1 -0.6,0.5 -0.4,0.6 1.5,0.2 z m 0.5,18.4 -0.7,0.7 0.5,0.8 0.9,0.6 -1,0.4 -0.3,0.3 1.3,0.9 1.5,-0.6 1,0.9 1.1,-0.2 1.4,-0.1 -0.5,-1.2 -1.9,-1.4 -1.6,-0.6 -1.3,-0.3 z m 1.4,23.7 0.5,0.4 h -0.5 l -0.8,0.3 0.4,0.1 z m 0.6,-27.9 0.3,0.5 1,0.1 0.2,-1.3 z m 1,27.2 0.8,0.3 -1.6,-0.6 0.3,0.9 z m 0.2,-35.5 0.5,-0.4 -0.8,0.3 z m 1,35.1 -0.2,0.2 1,-0.1 h -0.1 z m 4.6,-34.4 0.1,-0.2 0.7,-0.1 -0.1,0.4 -1.1,-0.4 z m 5.7,39.3 -0.9,-0.7 z m 1.5,0 -1.7,-0.1 -0.1,0.6 0.9,0.4 -0.3,0.2 z m -0.3,10.1 0.5,0.2 -0.1,0.3 -0.8,0.8 0.2,-0.8 z m 0.1,-7 -0.4,-0.6 0.2,0.3 0.8,-0.1 z"
   class="st4" />
		<path
   style="fill:#ffffff"
   inkscape:connector-curvature="0"
   id="path1483"
   d="m 1043.2,261.6 0.9,-0.7 0.3,0.5 -1.3,2.2 -0.2,0.9 -1.7,1.6 0.2,1.1 -2.1,-0.1 h -1 l -2,0.8 h -3.7 l -0.5,-0.1 -2,0.2 -2.6,-0.4 -1,0.5 -1,-0.2 -0.6,1.1 0.9,0.2 1.5,0.3 2.3,-0.4 1.2,0.3 2.3,-0.3 2.4,0.1 1.5,-0.1 2.8,-0.7 -0.5,0.9 -0.8,1.3 -0.8,-0.1 0.2,1.3 -1.7,1.4 -2.1,1.2 -1.6,0.7 -1.9,-0.3 0.3,-0.2 -2.3,1 -1.6,-0.7 -1.5,0.4 -1.7,0.1 h 0.5 v 1.4 l -0.2,-0.1 1.1,0.4 4.4,-0.4 1,-0.6 -0.4,1 -1.5,1.2 h -2 l -0.8,1.3 h -1.4 l -2.2,0.6 -0.5,0.6 -2.3,0.9 -3,0.3 -0.4,0.3 -2.1,0.2 -1.3,0.4 -0.6,-0.1 -1.3,-0.3 -2.2,0.5 -1.8,0.1 h -1.8 l -2.3,-0.1 -1.2,0.4 -1.3,-0.3 -1.9,-0.6 -1.8,0.9 -1.9,-0.2 -1.7,-0.4 -1.9,-0.8 -0.1,-1.8 1.3,-1.9 0.5,-2.3 0.4,-0.9 0.7,-0.2 0.2,-0.9 0.5,-2.4 0.1,-1.2 1.8,0.7 1.3,-0.5 2.4,0.1 1.9,-0.3 1.8,0.3 3.5,-0.3 0.9,-2.1 -0.3,0.1 -2.3,0.3 -1.1,0.7 -0.9,-0.3 -1.5,0.2 -0.9,0.4 -2.2,-0.8 -0.6,0.1 H 997 l -1.6,-1 -1,-0.6 0.7,-1.5 0.3,-1.8 0.4,-1.1 -0.2,-1.2 0.5,-1.9 0.7,-1 -0.6,-1.6 0.9,-0.7 -0.1,-0.3 0.4,-0.9 -0.5,0.2 0.1,-0.6 1.2,-1.5 -0.7,-1.2 0.2,-0.6 v 0.4 l 0.3,-0.5 0.4,-1.1 -1.1,-0.7 0.7,-1.4 0.4,-1.9 0.4,-2 1.4,-3.5 -0.1,-2.5 0.7,-2.2 1.2,-1.5 1.3,0.4 2.3,-0.1 h 3.1 l 0.7,-0.6 2.1,-0.3 2.6,0.5 0.3,0.9 v 1.1 l -0.2,1.7 -1,3.5 -0.4,1.4 v 1.5 l -1.1,2.4 1.1,2.2 -0.4,1.5 -1,2.8 -0.6,1.3 -0.1,0.7 -0.7,3.3 -0.1,1.6 -0.6,3 1.6,1.8 0.3,0.8 -0.4,0.7 0.7,-0.2 1.6,0.7 0.2,-0.7 1.4,-1.1 0.2,0.7 0.1,0.2 1.8,-0.6 1.6,-0.1 1.6,-0.2 0.4,-0.5 2.1,-0.6 -0.2,-0.6 0.8,-0.5 1.1,0.5 0.1,-0.9 1.7,-0.5 2.5,-0.2 0.9,-0.7 0.3,0.1 -0.2,-0.6 0.7,-0.2 1.5,-1.5 0.7,-2.1 0.3,-0.5 1.5,-2.1 -0.3,-1.1 1.6,-1.6 0.1,-2.2 1.1,-3.3 0.4,-1 -0.2,-1.3 -0.7,-1.8 1.3,-1.9 0.3,0.7 -0.9,-0.5 0.4,-1.1 0.1,0.2 -0.6,-1.5 -0.6,-2.3 -0.3,-1.3 -0.3,-1.2 0.2,0.3 1.6,-0.9 2.2,-0.9 0.2,0.9 v 0.6 l 1.8,-0.3 1.6,0.1 1,-0.1 2.8,-0.4 1.9,-0.5 0.9,0.6 2,0.1 -0.5,2.7 0.2,1.8 v 1.5 l -1,1.6 1,2.6 -0.9,1.6 -0.3,1.2 -1.4,3.5 0.4,1.8 -0.4,0.8 -0.9,3.2 -1,1.3 v 1.7 l -2,1.6 h -1.5 l -0.4,-0.2 -0.3,-0.4 0.2,0.2 -1.1,0.8 -1.3,0.2 h -0.3 l 0.1,-0.8 -0.4,0.7 -0.9,-0.4 -1.7,0.3 -1.3,-0.5 -1.6,0.1 -1.2,-0.1 -1.9,0.6 -0.9,0.4 -0.6,1 1,0.5 1.9,-0.8 1.1,0.4 1.7,-0.1 2.9,-0.6 0.9,0.2 -0.3,0.3 0.5,-0.4 0.6,0.1 -0.3,-0.2 v 0.2 l 1,-0.7 z m -46.9,-5.2 0.8,0.7 -0.4,-0.1 z m 40.8,-42.8 1.4,0.8 0.2,-0.2 3.2,1.1 1,0.3 1.4,1.2 -0.8,0.3 h -1.9 l -1.5,-0.3 -2.4,0.1 -2.2,0.4 -2.2,1.2 -0.8,0.3 0.1,-0.4 h 1.2 l 1.6,-0.2 0.8,0.4 1.2,-0.5 2.6,-0.3 h 0.9 l 2.2,0.3 1.4,-0.3 0.8,0.8 2.5,2 0.3,2.8 0.6,0.7 -1,0.1 h -0.9 l -0.4,-0.1 -2.1,0.2 -1.5,-0.1 -1.4,0.6 -0.8,-0.1 -2.2,0.3 h -1.5 l 0.7,0.9 0.6,0.5 1.2,-0.7 2.3,-0.2 1.3,0.2 h 1.9 l 1.3,0.2 1.6,-0.2 1.4,-0.3 0.5,0.1 0.4,1.3 -0.2,2.2 0.3,1.7 v 0.7 l -1.6,0.1 -1.2,0.2 -1.5,-0.4 -2.8,0.6 -0.9,-0.4 -0.7,0.2 -1.7,0.5 -1.4,-0.7 -2.5,0.2 -2.5,0.7 0.2,0.2 -0.6,-1 -1.5,-0.2 -0.6,-0.7 -0.7,-1.6 -1.1,0.6 -2.5,-0.9 -2.8,-0.5 -1,-0.3 -3.2,0.1 -2.2,0.3 -0.7,-0.1 0.5,0.3 -0.8,-0.4 -0.7,-0.1 0.5,0.7 -1.2,-0.2 v 0.6 l -0.3,2 -0.5,1.7 -1.5,0.5 -3.3,-0.1 h -1.1 l -1.7,-0.1 -1.2,-0.6 -1,0.2 -1.9,0.4 -1,-0.7 0.2,-1.1 0.6,-2.2 0.3,-1.1 0.6,-2.4 v -1.2 -1.2 l 0.7,-1 -0.4,-1.5 1.6,-1.7 -0.7,-2.1 1,-1.8 1.4,-2.3 0.2,-0.8 1.7,0.6 1.7,0.1 1,-0.5 2.2,0.5 h 0.8 l 1.4,-0.7 1.3,0.1 3.1,-0.3 1.7,0.3 2.4,0.2 h 1.5 l 3,0.2 1.5,0.3 1.5,-0.1 h 1.2 l 2.3,-0.5 z m -33.2,16.6 0.2,0.5 0.3,-1.4 -0.9,0.7 -1.1,0.1 z m -0.1,-1.1 1.1,-0.2 -0.5,0.3 z m 3.4,-2.2 0.1,0.4 0.1,0.4 0.2,-0.3 z m 2.5,-0.1 0.2,-0.7 -0.8,-0.5 -0.2,0.4 0.8,-0.6 -0.6,0.3 -0.5,1 -0.1,0.2 0.6,-0.5 -0.2,0.8 z m -0.6,-3.7 0.5,-0.1 0.1,0.8 z m 0.6,-1 h -0.3 l 0.5,0.3 0.2,-0.3 z m 1.4,1.3 -0.2,-0.1 -0.2,0.2 -0.7,0.7 z m 1.2,-2.1 -0.2,-0.1 0.2,0.4 z m 2.3,7.8 v 0.5 l -0.8,0.1 0.7,0.1 -0.2,0.7 1.1,-0.7 z m -0.2,-9.3 0.6,-0.1 -0.7,-0.3 -0.3,0.1 z m 1.3,8.3 0.6,0.2 0.1,0.7 0.4,-0.2 -1.4,-0.4 z m 1.6,-9.4 -0.3,0.8 h -0.9 l 0.6,-0.1 z m 7.2,7.8 1.5,-0.4 -0.9,-0.6 -3,-0.2 -1.3,0.4 h -2.4 l 0.4,1.2 v 0.1 l 1.9,-0.4 1.5,0.3 z m 6.8,-1.7 -0.4,0.1 -1.1,0.1 -1.7,0.7 -0.2,0.1 0.5,0.1 1.8,0.2 1,-0.2 1.8,0.7 1.9,-0.5 1.1,-0.7 -0.4,0.2 h -1.4 l -0.4,-0.2 -1.4,-0.1 z m -0.5,4.5 1.4,-1 -0.8,0.1 -0.6,0.6 z m 6.1,40 0.3,-0.1 1,-0.2 z m 1.5,0.6 -1.2,0.6 0.7,-0.4 z m 0.2,0.4 -0.3,-0.1 0.6,-0.2 z m 0,-31.1 0.1,1.1 0.4,-0.3 -0.3,-0.6 z m 1.6,23.9 -0.5,-0.8 0.7,0.8 -0.7,0.1 z m -0.4,-23.9 2,0.9 0.3,-0.4 2.3,-0.6 0.9,-0.4 -2.2,-0.5 -2.4,0.5 z m 2.2,15.7 -0.4,0.4 -0.2,-0.4 z m 3.6,-1.6 h -2.4 l -1.5,0.2 -0.2,-0.3 0.6,0.7 0.5,-0.2 z m -2.3,5 -1.3,0.3 1.2,-0.7 z m -0.2,-2.8 0.8,0.4 -0.3,-0.6 -0.4,0.9 z m 1,-3.5 -0.5,0.8 1,-0.4 z m 0.6,-12.1 0.2,-0.3 0.6,0.4 z m 0.7,0.5 0.5,1.2 -0.2,-0.4 0.8,-0.1 z"
   class="st4" />
	</g>
<path
   class="st9"
   d="M771.8-4.1c-8.1-1.5-12.9-4-12.9-4s-0.6-0.2-1.9-0.8c-2.6-1.1-8.1-3.5-17.3-7.5c-7.8-2.6-11.1-2.5-13.4-2  c-2.8,0.5-5.5,1.6-7.8,3.2c-2.8,1.9-5.5,3.9-5.5,3.9S727-7.1,736.3,8.3c2.1,2.7,3.6,5.5,5.8,8c8.3,9.2,21,19.5,35,21.9  c17.2,1.2,46.2,0.4,60.7-4.2c13.2-3.5,16.4-4.6,16.4-4.6s9.9-4,36.3,2.3c0,0-16-10-20.9-22.1c0,0-18.8,11.4-35.6,1  c0,0,31.1-18.6,41.1-44.9c0,0-40.7-6.6-68.1,3.8c0,0,12.3-11.3,6.5-27.6c0,0-46.3,18.1-54.8,45.6l-1.3,3.5"
   id="path1489" />
</svg>